<svg width="66" height="100" viewBox="0 0 66 100" fill="none" xmlns="http://www.w3.org/2000/svg">
<g clip-path="url(#clip0_18_16)">
<path fill-rule="evenodd" clip-rule="evenodd" d="M65.47 1.45006V3.42006C65.33 3.37006 65.18 3.34006 65.02 3.34006C64.33 3.34006 63.77 3.90006 63.77 4.59006C63.77 5.28006 64.33 5.84006 65.02 5.84006C65.18 5.84006 65.33 5.81006 65.47 5.76006V7.73006C65.33 7.68006 65.18 7.65006 65.02 7.65006C64.33 7.65006 63.77 8.21006 63.77 8.90006C63.77 9.59006 64.33 10.1501 65.02 10.1501C65.18 10.1501 65.33 10.1201 65.47 10.0601V12.0301C65.33 11.9801 65.18 11.9501 65.02 11.9501C64.33 11.9501 63.77 12.5101 63.77 13.2001C63.77 13.8901 64.33 14.4501 65.02 14.4501C65.18 14.4501 65.33 14.4201 65.47 14.3701V16.3401C65.33 16.2901 65.18 16.2601 65.02 16.2601C64.33 16.2601 63.77 16.8201 63.77 17.5101C63.77 18.2001 64.33 18.7601 65.02 18.7601C65.18 18.7601 65.33 18.7301 65.47 18.6701V20.6401C65.33 20.5901 65.18 20.5601 65.02 20.5601C64.33 20.5601 63.77 21.1201 63.77 21.8101C63.77 22.5001 64.33 23.0601 65.02 23.0601C65.18 23.0601 65.33 23.0301 65.47 22.9801V24.9501C65.33 24.9001 65.18 24.8701 65.02 24.8701C64.33 24.8701 63.77 25.4301 63.77 26.1201C63.77 26.8101 64.33 27.3701 65.02 27.3701C65.18 27.3701 65.33 27.3401 65.47 27.2801V29.2501C65.33 29.2001 65.18 29.1701 65.02 29.1701C64.33 29.1701 63.77 29.7301 63.77 30.4201C63.77 31.1101 64.33 31.6701 65.02 31.6701C65.18 31.6701 65.33 31.6401 65.47 31.5801V33.5501C65.33 33.5001 65.18 33.4701 65.02 33.4701C64.33 33.4701 63.77 34.0301 63.77 34.7201C63.77 35.4101 64.33 35.9701 65.02 35.9701C65.18 35.9701 65.33 35.9401 65.47 35.8801V37.8501C65.33 37.8001 65.18 37.7701 65.02 37.7701C64.33 37.7701 63.77 38.3301 63.77 39.0201C63.77 39.7101 64.33 40.2701 65.02 40.2701C65.18 40.2701 65.33 40.2401 65.47 40.1801V42.1501C65.33 42.1001 65.18 42.0701 65.02 42.0701C64.33 42.0701 63.77 42.6301 63.77 43.3201C63.77 44.0101 64.33 44.5701 65.02 44.5701C65.18 44.5701 65.33 44.5401 65.47 44.4801V46.4501C65.33 46.4001 65.18 46.3701 65.02 46.3701C64.33 46.3701 63.77 46.9301 63.77 47.6201C63.77 48.3101 64.33 48.8701 65.02 48.8701C65.18 48.8701 65.33 48.8401 65.47 48.7801V50.7501C65.33 50.7001 65.18 50.6701 65.02 50.6701C64.33 50.6701 63.77 51.2301 63.77 51.9201C63.77 52.6101 64.33 53.1701 65.02 53.1701C65.18 53.1701 65.33 53.1401 65.47 53.0901V55.0601C65.33 55.0101 65.18 54.9801 65.02 54.9801C64.33 54.9801 63.77 55.5401 63.77 56.2301C63.77 56.9201 64.33 57.4801 65.02 57.4801C65.18 57.4801 65.33 57.4501 65.47 57.3901V59.3601C65.33 59.3101 65.18 59.2801 65.02 59.2801C64.33 59.2801 63.77 59.8401 63.77 60.5301C63.77 61.2201 64.33 61.7801 65.02 61.7801C65.18 61.7801 65.33 61.7501 65.47 61.7001V63.6701C65.33 63.6201 65.18 63.5901 65.02 63.5901C64.33 63.5901 63.77 64.1501 63.77 64.8401C63.77 65.5301 64.33 66.0901 65.02 66.0901C65.18 66.0901 65.33 66.0601 65.47 66.0101V67.9801C65.33 67.9301 65.18 67.9001 65.02 67.9001C64.33 67.9001 63.77 68.4601 63.77 69.1501C63.77 69.8401 64.33 70.4001 65.02 70.4001C65.18 70.4001 65.33 70.3701 65.47 70.3101V72.2801C65.33 72.2301 65.18 72.2001 65.02 72.2001C64.33 72.2001 63.77 72.7601 63.77 73.4501C63.77 74.1401 64.33 74.7001 65.02 74.7001C65.18 74.7001 65.33 74.6701 65.47 74.6201V76.5901C65.33 76.5401 65.18 76.5101 65.02 76.5101C64.33 76.5101 63.77 77.0701 63.77 77.7601C63.77 78.4501 64.33 79.0101 65.02 79.0101C65.18 79.0101 65.33 78.9801 65.47 78.9201V80.8901C65.33 80.8401 65.18 80.8101 65.02 80.8101C64.33 80.8101 63.77 81.3701 63.77 82.0601C63.77 82.7501 64.33 83.3101 65.02 83.3101C65.18 83.3101 65.33 83.2801 65.47 83.2201V85.1901C65.33 85.1401 65.18 85.1001 65.02 85.1001C64.33 85.1001 63.77 85.6601 63.77 86.3501C63.77 87.0401 64.33 87.6001 65.02 87.6001C65.18 87.6001 65.33 87.5701 65.47 87.5101V89.4801C65.33 89.4301 65.18 89.4001 65.02 89.4001C64.33 89.4001 63.77 89.9601 63.77 90.6501C63.77 91.3401 64.33 91.9001 65.02 91.9001C65.18 91.9001 65.33 91.8701 65.47 91.8201V93.7901C65.33 93.7401 65.18 93.7101 65.02 93.7101C64.33 93.7101 63.77 94.2701 63.77 94.9601C63.77 95.6501 64.33 96.2101 65.02 96.2101C65.18 96.2101 65.33 96.1801 65.47 96.1201V98.0901C65.35 98.0401 65.23 98.0201 65.09 98.0101C65.04 98.0101 65.01 98.0101 64.96 98.0101C64.19 98.0501 63.62 98.7901 63.8 99.5501H61.93C61.95 99.4601 61.96 99.3601 61.96 99.2601C61.96 98.5701 61.4 98.0101 60.71 98.0101C60.02 98.0101 59.46 98.5701 59.46 99.2601C59.46 99.3601 59.47 99.4501 59.49 99.5501H57.62C57.64 99.4601 57.65 99.3601 57.65 99.2601C57.65 98.5701 57.09 98.0101 56.4 98.0101C55.71 98.0101 55.15 98.5701 55.15 99.2601C55.15 99.3601 55.16 99.4501 55.18 99.5501H53.31C53.33 99.4601 53.34 99.3601 53.34 99.2601C53.34 98.5701 52.78 98.0101 52.09 98.0101C51.4 98.0101 50.84 98.5701 50.84 99.2601C50.84 99.3601 50.85 99.4501 50.87 99.5501H49C49.02 99.4601 49.03 99.3601 49.03 99.2601C49.03 98.5701 48.47 98.0101 47.78 98.0101C47.09 98.0101 46.53 98.5701 46.53 99.2601C46.53 99.3601 46.54 99.4501 46.56 99.5501H44.69C44.71 99.4601 44.72 99.3601 44.72 99.2601C44.72 98.5701 44.16 98.0101 43.47 98.0101C42.78 98.0101 42.22 98.5701 42.22 99.2601C42.22 99.3601 42.23 99.4501 42.25 99.5501H40.38C40.4 99.4601 40.41 99.3601 40.41 99.2601C40.41 98.5701 39.85 98.0101 39.16 98.0101C38.47 98.0101 37.91 98.5701 37.91 99.2601C37.91 99.3601 37.92 99.4501 37.94 99.5501H36.07C36.09 99.4601 36.1 99.3601 36.1 99.2601C36.1 98.5701 35.54 98.0101 34.85 98.0101C34.16 98.0101 33.6 98.5701 33.6 99.2601C33.6 99.3601 33.61 99.4501 33.63 99.5501H31.76C31.78 99.4601 31.79 99.3601 31.79 99.2601C31.79 98.5701 31.23 98.0101 30.54 98.0101C29.85 98.0101 29.29 98.5701 29.29 99.2601C29.29 99.3601 29.3 99.4501 29.32 99.5501H27.45C27.47 99.4601 27.48 99.3601 27.48 99.2601C27.48 98.5701 26.92 98.0101 26.23 98.0101C25.54 98.0101 24.98 98.5701 24.98 99.2601C24.98 99.3601 24.99 99.4501 25.01 99.5501H23.14C23.16 99.4601 23.17 99.3601 23.17 99.2601C23.17 98.5701 22.61 98.0101 21.92 98.0101C21.23 98.0101 20.67 98.5701 20.67 99.2601C20.67 99.3601 20.68 99.4501 20.7 99.5501H18.83C18.85 99.4601 18.86 99.3601 18.86 99.2601C18.86 98.5701 18.3 98.0101 17.61 98.0101C16.92 98.0101 16.36 98.5701 16.36 99.2601C16.36 99.3601 16.37 99.4501 16.39 99.5501H14.52C14.54 99.4601 14.55 99.3601 14.55 99.2601C14.55 98.5701 13.99 98.0101 13.3 98.0101C12.61 98.0101 12.05 98.5701 12.05 99.2601C12.05 99.3601 12.06 99.4501 12.08 99.5501H10.21C10.23 99.4601 10.24 99.3601 10.24 99.2601C10.24 98.5701 9.67998 98.0101 8.98998 98.0101C8.29998 98.0101 7.73998 98.5701 7.73998 99.2601C7.73998 99.3601 7.74998 99.4501 7.76998 99.5501H5.89998C5.91998 99.4601 5.92998 99.3601 5.92998 99.2601C5.92998 98.5701 5.36998 98.0101 4.67998 98.0101C3.98998 98.0101 3.42998 98.5701 3.42998 99.2601C3.42998 99.3601 3.43998 99.4501 3.45998 99.5501H1.58998V99.4801C1.76998 98.5501 0.919983 97.8501 0.0799829 98.0401C0.0199829 98.0501 -0.0300171 98.0701 -0.0800171 98.0901V96.1201C0.0599829 96.1701 0.209983 96.2101 0.369983 96.2101C1.05998 96.2101 1.61998 95.6501 1.61998 94.9601C1.61998 94.2701 1.05998 93.7101 0.369983 93.7101C0.209983 93.7101 0.0599829 93.7401 -0.0800171 93.7901V91.8201C0.0599829 91.8701 0.209983 91.9101 0.369983 91.9101C1.05998 91.9101 1.61998 91.3501 1.61998 90.6601C1.61998 89.9701 1.05998 89.4101 0.369983 89.4101C0.209983 89.4101 0.0599829 89.4401 -0.0800171 89.5001V87.5301C0.0599829 87.5801 0.209983 87.6201 0.369983 87.6201C1.05998 87.6201 1.61998 87.0601 1.61998 86.3701C1.61998 85.6801 1.05998 85.1201 0.369983 85.1201C0.209983 85.1201 0.0599829 85.1501 -0.0800171 85.2101V83.2401C0.0599829 83.3001 0.209983 83.3301 0.369983 83.3301C1.05998 83.3301 1.61998 82.7701 1.61998 82.0801C1.61998 81.3901 1.05998 80.8301 0.369983 80.8301C0.209983 80.8301 0.0599829 80.8601 -0.0800171 80.9101V78.9301C0.0599829 78.9901 0.209983 79.0201 0.369983 79.0201C1.05998 79.0201 1.61998 78.4601 1.61998 77.7701C1.61998 77.0801 1.05998 76.5201 0.369983 76.5201C0.209983 76.5201 0.0599829 76.5501 -0.0800171 76.6001V74.6201C0.0599829 74.6801 0.209983 74.7101 0.369983 74.7101C1.05998 74.7101 1.61998 74.1501 1.61998 73.4601C1.61998 72.7701 1.05998 72.2101 0.369983 72.2101C0.209983 72.2101 0.0599829 72.2401 -0.0800171 72.2901V70.3201C0.0599829 70.3801 0.209983 70.4101 0.369983 70.4101C1.05998 70.4101 1.61998 69.8501 1.61998 69.1601C1.61998 68.4701 1.05998 67.9101 0.369983 67.9101C0.209983 67.9101 0.0599829 67.9401 -0.0800171 67.9901V66.0201C0.0599829 66.0701 0.209983 66.1101 0.369983 66.1101C1.05998 66.1101 1.61998 65.5501 1.61998 64.8601C1.61998 64.1701 1.05998 63.6101 0.369983 63.6101C0.209983 63.6101 0.0599829 63.6401 -0.0800171 63.6901V61.7201C0.0599829 61.7801 0.209983 61.8101 0.369983 61.8101C1.05998 61.8101 1.61998 61.2501 1.61998 60.5601C1.61998 59.8701 1.05998 59.3101 0.369983 59.3101C0.209983 59.3101 0.0599829 59.3401 -0.0800171 59.3901V57.4101C0.0599829 57.4701 0.209983 57.5001 0.369983 57.5001C1.05998 57.5001 1.61998 56.9401 1.61998 56.2501C1.61998 55.5601 1.05998 55.0001 0.369983 55.0001C0.209983 55.0001 0.0599829 55.0301 -0.0800171 55.0801V53.1001C0.0599829 53.1501 0.209983 53.1901 0.369983 53.1901C1.05998 53.1901 1.61998 52.6301 1.61998 51.9401C1.61998 51.2501 1.05998 50.6901 0.369983 50.6901C0.209983 50.6901 0.0599829 50.7201 -0.0800171 50.7701V48.8001C0.0599829 48.8601 0.209983 48.8901 0.369983 48.8901C1.05998 48.8901 1.61998 48.3301 1.61998 47.6401C1.61998 46.9501 1.05998 46.3901 0.369983 46.3901C0.209983 46.3901 0.0599829 46.4201 -0.0800171 46.4701V44.5001C0.0599829 44.5601 0.209983 44.5901 0.369983 44.5901C1.05998 44.5901 1.61998 44.0301 1.61998 43.3401C1.61998 42.6501 1.05998 42.0901 0.369983 42.0901C0.209983 42.0901 0.0599829 42.1201 -0.0800171 42.1801V40.2101C0.0599829 40.2701 0.209983 40.3001 0.369983 40.3001C1.05998 40.3001 1.61998 39.7401 1.61998 39.0501C1.61998 38.3601 1.05998 37.8001 0.369983 37.8001C0.209983 37.8001 0.0599829 37.8301 -0.0800171 37.8801V35.9101C0.0599829 35.9701 0.209983 36.0001 0.369983 36.0001C1.05998 36.0001 1.61998 35.4401 1.61998 34.7501C1.61998 34.0601 1.05998 33.5001 0.369983 33.5001C0.209983 33.5001 0.0599829 33.5301 -0.0800171 33.5801V31.6101C0.0599829 31.6601 0.209983 31.7001 0.369983 31.7001C1.05998 31.7001 1.61998 31.1401 1.61998 30.4501C1.61998 29.7601 1.05998 29.2001 0.369983 29.2001C0.209983 29.2001 0.0599829 29.2301 -0.0800171 29.2801V27.3101C0.0599829 27.3701 0.209983 27.4001 0.369983 27.4001C1.05998 27.4001 1.61998 26.8401 1.61998 26.1501C1.61998 25.4601 1.05998 24.9001 0.369983 24.9001C0.209983 24.9001 0.0599829 24.9301 -0.0800171 24.9801V23.0101C0.0599829 23.0701 0.209983 23.1001 0.369983 23.1001C1.05998 23.1001 1.61998 22.5401 1.61998 21.8501C1.61998 21.1601 1.05998 20.6001 0.369983 20.6001C0.209983 20.6001 0.0599829 20.6301 -0.0800171 20.6801V18.7101C0.0599829 18.7701 0.209983 18.8001 0.369983 18.8001C1.05998 18.8001 1.61998 18.2401 1.61998 17.5501C1.61998 16.8601 1.05998 16.3001 0.369983 16.3001C0.209983 16.3001 0.0599829 16.3301 -0.0800171 16.3801V14.4101C0.0599829 14.4701 0.209983 14.5001 0.369983 14.5001C1.05998 14.5001 1.61998 13.9401 1.61998 13.2501C1.61998 12.5601 1.05998 12.0001 0.369983 12.0001C0.209983 12.0001 0.0599829 12.0301 -0.0800171 12.0801V10.1101C0.0599829 10.1701 0.209983 10.2001 0.369983 10.2001C1.05998 10.2001 1.61998 9.64006 1.61998 8.95006C1.61998 8.26006 1.05998 7.70006 0.369983 7.70006C0.209983 7.70006 0.0599829 7.73006 -0.0800171 7.78006V5.81006C0.0599829 5.86006 0.209983 5.90006 0.369983 5.90006C1.05998 5.90006 1.61998 5.34006 1.61998 4.65006C1.61998 3.96006 1.05998 3.40006 0.369983 3.40006C0.209983 3.40006 0.0599829 3.43006 -0.0800171 3.48006V1.51006L-0.0300171 1.53006C0.889983 1.82006 1.81998 1.02006 1.58998 0.0600586H3.45998C3.43998 0.150059 3.42998 0.250059 3.42998 0.350059C3.42998 1.04006 3.98998 1.60006 4.67998 1.60006C5.36998 1.60006 5.92998 1.04006 5.92998 0.350059C5.92998 0.250059 5.91998 0.150059 5.89998 0.0600586H7.76998C7.74998 0.150059 7.73998 0.250059 7.73998 0.350059C7.73998 1.04006 8.29998 1.60006 8.98998 1.60006C9.67998 1.60006 10.24 1.04006 10.24 0.350059C10.24 0.250059 10.23 0.150059 10.21 0.0600586H12.08C12.06 0.150059 12.05 0.250059 12.05 0.350059C12.05 1.04006 12.61 1.60006 13.3 1.60006C13.99 1.60006 14.55 1.04006 14.55 0.350059C14.55 0.250059 14.54 0.150059 14.52 0.0600586H16.39C16.37 0.150059 16.36 0.250059 16.36 0.350059C16.36 1.04006 16.92 1.60006 17.61 1.60006C18.3 1.60006 18.86 1.04006 18.86 0.350059C18.86 0.250059 18.85 0.150059 18.83 0.0600586H20.7C20.68 0.150059 20.67 0.250059 20.67 0.350059C20.67 1.04006 21.23 1.60006 21.92 1.60006C22.61 1.60006 23.17 1.04006 23.17 0.350059C23.17 0.250059 23.16 0.150059 23.14 0.0600586H25.01C24.99 0.150059 24.98 0.250059 24.98 0.350059C24.98 1.04006 25.54 1.60006 26.23 1.60006C26.92 1.60006 27.48 1.04006 27.48 0.350059C27.48 0.250059 27.47 0.150059 27.45 0.0600586H29.32C29.3 0.150059 29.29 0.250059 29.29 0.350059C29.29 1.04006 29.85 1.60006 30.54 1.60006C31.23 1.60006 31.79 1.04006 31.79 0.350059C31.79 0.250059 31.78 0.150059 31.76 0.0600586H33.63C33.61 0.150059 33.6 0.250059 33.6 0.350059C33.6 1.04006 34.16 1.60006 34.85 1.60006C35.54 1.60006 36.1 1.04006 36.1 0.350059C36.1 0.250059 36.09 0.150059 36.07 0.0600586H37.94C37.92 0.150059 37.91 0.250059 37.91 0.350059C37.91 1.04006 38.47 1.60006 39.16 1.60006C39.85 1.60006 40.41 1.04006 40.41 0.350059C40.41 0.250059 40.4 0.150059 40.38 0.0600586H42.25C42.23 0.150059 42.22 0.250059 42.22 0.350059C42.22 1.04006 42.78 1.60006 43.47 1.60006C44.16 1.60006 44.72 1.04006 44.72 0.350059C44.72 0.250059 44.71 0.150059 44.69 0.0600586H46.56C46.54 0.150059 46.53 0.250059 46.53 0.350059C46.53 1.04006 47.09 1.60006 47.78 1.60006C48.47 1.60006 49.03 1.04006 49.03 0.350059C49.03 0.250059 49.02 0.150059 49 0.0600586H50.87C50.85 0.150059 50.84 0.250059 50.84 0.350059C50.84 1.04006 51.4 1.60006 52.09 1.60006C52.78 1.60006 53.34 1.04006 53.34 0.350059C53.34 0.250059 53.33 0.150059 53.31 0.0600586H55.18C55.16 0.150059 55.15 0.250059 55.15 0.350059C55.15 1.04006 55.71 1.60006 56.4 1.60006C57.09 1.60006 57.65 1.04006 57.65 0.350059C57.65 0.250059 57.64 0.150059 57.62 0.0600586H59.49C59.47 0.150059 59.46 0.250059 59.46 0.350059C59.46 1.04006 60.02 1.60006 60.71 1.60006C61.4 1.60006 61.96 1.04006 61.96 0.350059C61.96 0.250059 61.95 0.150059 61.93 0.0600586H63.8C63.56 1.09006 64.56 1.84006 65.47 1.51006V1.45006Z" fill="#F5EFDF"/>
<path d="M58.36 6.70996H7.10999V92.87H58.36V6.70996Z" fill="#C86562"/>
<path fill-rule="evenodd" clip-rule="evenodd" d="M7.10999 77.4799H58.36V74.8099H7.10999V77.4799ZM58.36 92.8599V78.6399H7.10999V92.8599H58.36ZM58.36 73.5499V70.9799H7.10999V73.5499H58.36ZM58.36 69.6099V67.1499H7.10999V69.6099H58.36ZM58.36 65.6699V63.3199H7.10999V65.6699H58.36ZM58.36 61.7299V59.4799H7.10999V61.7299H58.36ZM58.36 57.7899V55.6499H7.10999V57.7899H58.36ZM58.36 53.8499V51.8199H7.10999V53.8499H58.36ZM58.36 49.9199V47.9899H7.10999V49.9199H58.36ZM58.36 45.9799V44.1599H7.10999V45.9799H58.36ZM58.36 42.0499V40.3399H7.10999V42.0499H58.36ZM58.36 38.1099V36.5099H7.10999V38.1099H58.36ZM58.36 34.1699V32.6699H7.10999V34.1699H58.36ZM58.36 30.2299V28.8399H7.10999V30.2299H58.36ZM58.36 26.2999V25.0199H7.10999V26.2999H58.36ZM58.36 22.3599V21.1799H7.10999V22.3599H58.36ZM58.36 18.4199V17.3499H7.10999V18.4199H58.36ZM58.36 14.4799V13.5199H7.10999V14.4799H58.36ZM58.36 10.5499V9.68994H7.10999V10.5499H58.36Z" fill="#A7504C"/>
<path fill-rule="evenodd" clip-rule="evenodd" d="M49.72 81.4599L42.79 69.3999V67.7699C42.81 67.1699 43.05 66.0799 42.63 65.6099C42.29 65.2199 41.56 65.2299 40.96 65.2499C39.95 62.1799 38.86 59.1399 38.03 56.0199L37.96 55.7399L37.79 55.6399C37.79 55.3499 37.83 54.9399 37.87 54.5799C37.96 54.5399 38.05 54.4699 38.14 54.3899C38.33 54.1999 38.43 53.9499 38.43 53.6799V53.3499C38.43 52.5899 37.91 52.4099 37.36 52.3599C36.16 41.0899 35.31 29.7999 34.72 18.4899C35.13 18.3799 35.41 18.0999 35.41 17.4599V16.9099C35.41 16.4599 35.27 16.1799 35.04 16.0199C35.21 15.4299 34.58 14.7999 34.21 14.4099C34.02 14.2099 33.79 13.9999 33.59 13.7999L33.51 9.12995C33.51 8.58995 33.12 8.32995 32.73 8.34995C32.37 8.35995 32.02 8.62995 32.02 9.13995L31.94 13.8199C31.77 13.9999 31.52 14.2099 31.36 14.3599C30.95 14.7599 30.3 15.3699 30.52 15.9999C30.26 16.1599 30.11 16.4299 30.11 16.9099V17.4599C30.11 18.1399 30.42 18.3999 30.85 18.4999C30.26 29.8099 29.4 41.0899 28.19 52.3599C27.62 52.3999 27.09 52.5799 27.09 53.3499V53.6899C27.09 54.0899 27.28 54.3699 27.56 54.5299V55.7599C27.34 56.1099 27.28 56.6199 27.18 56.9899L24.49 65.2599C23.9 65.2299 23.18 65.2299 22.85 65.6299C22.43 66.1299 22.76 67.0899 22.9 67.7099V69.41L15.78 81.4899H13.72V84.3899H24.54V81.4899H22.99C23.9 76.1299 28.31 73.3299 32.74 73.3599C36.99 73.3899 41.26 76.0199 42.47 81.4899H41.35V84.3899H51.81V81.4899H49.75L49.72 81.4599ZM32.72 65.2599H30.32L31.6 58.0299H32.72L33.84 58.0199L35.12 65.2599H32.72Z" fill="#A7504C"/>
<path fill-rule="evenodd" clip-rule="evenodd" d="M49.3199 82.14L46.1299 76.59L44.2599 73.34L43.99 72.87L43.2899 71.64L42.3899 70.08L42.0999 69.57V67.76C42.1499 66.14 42.4399 65.94 41.5699 65.93C41.4799 65.93 41.3799 65.93 41.2699 65.93C41.0499 65.93 40.7899 65.93 40.4699 65.93L40.3499 65.55C40.0599 64.68 39.7699 63.81 39.4799 62.93L39.1699 62.01C39.0699 61.71 38.9699 61.41 38.8699 61.11C38.7099 60.62 38.5499 60.13 38.3899 59.64C38.3199 59.42 38.2499 59.2 38.1799 58.98C38.0899 58.7 38.0099 58.43 37.9299 58.15C37.7699 57.61 37.6099 57.08 37.4699 56.54L37.3699 56.18L37.1599 56.06C37.0099 55.83 37.2099 54.4 37.2099 53.98C37.2899 53.98 37.3799 53.98 37.4599 53.98C37.5299 53.97 37.5899 53.94 37.6399 53.89C37.6999 53.83 37.7299 53.75 37.7299 53.67V53.33C37.7299 53.14 37.6199 53.06 37.4599 53.02C37.3399 52.99 37.1999 52.99 37.0599 53C36.9399 53 36.8299 53.01 36.7199 53.01L36.6799 52.66C36.5599 51.5 36.4399 50.34 36.3199 49.18C36.2099 48.14 36.1099 47.09 36.0099 46.05L35.9 44.88C35.76 43.43 35.6399 41.98 35.5099 40.53C35.4199 39.51 35.3399 38.49 35.2599 37.48C35.1899 36.6 35.1199 35.72 35.0499 34.84C34.9899 34 34.9199 33.16 34.8599 32.32C34.8099 31.57 34.7499 30.81 34.6999 30.05C34.6399 29.18 34.5799 28.3 34.5299 27.43C34.4399 26.01 34.3499 24.58 34.2699 23.15C34.1999 21.94 34.1299 20.74 34.0699 19.53L33.9799 17.86H34.0699C34.1399 17.86 34.2099 17.86 34.2699 17.86C34.3699 17.86 34.4599 17.86 34.5299 17.82C34.6399 17.77 34.6999 17.66 34.6999 17.44V16.89C34.6999 16.67 34.6399 16.56 34.5299 16.51C34.4599 16.48 34.3699 16.47 34.2699 16.47C34.2099 16.47 34.1399 16.47 34.0699 16.47H34.0399V15.87H34.2299C34.2299 15.87 34.2599 15.87 34.2699 15.87C34.3999 15.85 34.3799 15.73 34.2699 15.56C34.2199 15.48 34.1499 15.39 34.0699 15.29C33.9699 15.17 33.8499 15.04 33.7299 14.91L33.6399 14.82L33.5299 14.71C33.4099 14.59 33.2999 14.48 33.1999 14.38L33.0399 14.22L32.9499 14.13C32.9499 14.13 32.8899 14.06 32.8799 14.05V13.76L32.7899 9.11997C32.7899 8.99997 32.7199 8.97997 32.6899 9.03997C32.6799 9.05997 32.6699 9.08997 32.6699 9.11997L32.58 14.04C32.58 14.04 32.54 14.11 32.49 14.17L32.4499 14.21C32.4499 14.21 32.3699 14.29 32.3199 14.34C32.2199 14.44 32.0899 14.56 31.9599 14.68L31.8499 14.78L31.7099 14.92C31.6399 14.99 31.5699 15.06 31.5099 15.13C31.4199 15.23 31.3399 15.33 31.2699 15.41C31.1099 15.63 31.0599 15.8 31.2699 15.86C31.3099 15.87 31.3599 15.88 31.4299 15.88C31.4299 15.9 31.4299 15.92 31.4299 15.94V16.47H31.2699C31.1099 16.47 30.9799 16.47 30.8899 16.53C30.8099 16.59 30.7599 16.69 30.7599 16.88V17.43C30.7599 17.62 30.8099 17.72 30.8899 17.78C30.9799 17.85 31.1199 17.86 31.2699 17.85C31.3499 17.85 31.4299 17.85 31.5099 17.85H31.5399L31.5099 18.42C31.4299 19.87 31.3499 21.32 31.2699 22.76C31.1499 24.79 31.0299 26.81 30.8899 28.82C30.7999 30.13 30.7099 31.44 30.6099 32.75C30.5499 33.61 30.4799 34.46 30.4199 35.32C30.3399 36.29 30.2699 37.25 30.1899 38.22C30.0799 39.51 29.9699 40.81 29.8599 42.1C29.7699 43.08 29.6799 44.05 29.5899 45.03L29.4799 46.19C29.3799 47.27 29.2699 48.36 29.1599 49.44C29.0599 50.47 28.9499 51.5 28.8399 52.53L28.7899 53H28.7399C28.5099 53 28.2599 52.97 28.0599 53C27.8799 53.03 27.7499 53.11 27.7499 53.31V53.65C27.7499 53.86 27.8999 53.93 28.0599 53.96C28.1099 53.96 28.1599 53.96 28.2099 53.96L28.2299 56.02C28.1599 56.02 28.1099 56.09 28.0599 56.19C27.9299 56.46 27.8499 56.98 27.8099 57.13L27.3699 58.48L27.2599 58.83L26.8199 60.19L26.6399 60.76L26.2699 61.89L25.9599 62.84L24.9999 65.78L24.9599 65.91C24.6499 65.91 24.3999 65.91 24.1899 65.9C24.0599 65.9 23.9499 65.9 23.8499 65.9C23.0699 65.9 23.2499 66.11 23.5599 67.6V69.54L23.1999 70.16L22.7799 70.88L22.1499 71.95L21.1699 73.61L19.2999 76.78L16.1499 82.13H15.2599V83.66H23.2099V82.13H22.1899C22.2899 81.17 22.4899 80.28 22.7799 79.46C22.8999 79.1 23.0499 78.76 23.1999 78.43C23.3999 78.02 23.6199 77.62 23.8599 77.25C23.9699 77.08 24.0799 76.92 24.1999 76.76C24.4499 76.42 24.7299 76.09 25.0199 75.79C25.3199 75.48 25.6399 75.19 25.9799 74.92C26.0799 74.84 26.1799 74.76 26.2899 74.68C26.4099 74.59 26.5299 74.5 26.6599 74.42C26.7199 74.38 26.7799 74.34 26.8399 74.3C26.9799 74.21 27.1299 74.12 27.2799 74.03C27.3199 74.01 27.3599 73.99 27.3899 73.97C27.6199 73.84 27.8499 73.73 28.0799 73.62C28.2999 73.52 28.5299 73.42 28.7599 73.34C28.7899 73.33 28.8299 73.31 28.8599 73.3C28.9699 73.26 29.0799 73.22 29.1799 73.19C29.2899 73.15 29.3899 73.12 29.4999 73.09L29.6099 73.06C29.6999 73.03 29.7899 73.01 29.8799 72.99C29.9899 72.96 30.0999 72.93 30.2099 72.91C30.2899 72.89 30.3599 72.88 30.4399 72.86C30.4999 72.85 30.5699 72.83 30.6299 72.82C30.7199 72.8 30.8099 72.79 30.9099 72.77C31.0399 72.75 31.1599 72.73 31.2899 72.72C31.3699 72.71 31.4499 72.7 31.5299 72.69C31.5999 72.69 31.6699 72.68 31.7299 72.67H31.8699L31.9799 72.65C32.0999 72.65 32.2199 72.64 32.3399 72.63H32.4699H32.5099C32.5799 72.63 32.6399 72.63 32.7099 72.63C32.7699 72.63 32.83 72.63 32.9 72.63H32.9699H33.0599H33.2199C33.3299 72.64 33.4399 72.65 33.5499 72.66H33.6599L33.7499 72.68C33.8599 72.69 33.9799 72.7 34.0899 72.72C34.1599 72.72 34.2299 72.74 34.2899 72.75C34.3799 72.76 34.4699 72.78 34.5499 72.79C34.6099 72.79 34.6699 72.81 34.7199 72.82C34.7699 72.82 34.8299 72.84 34.8799 72.85C34.9399 72.86 34.9999 72.87 35.0699 72.89C35.1399 72.91 35.2099 72.92 35.2799 72.94C35.3599 72.96 35.4499 72.98 35.5299 73C35.6599 73.04 35.7899 73.07 35.9199 73.11L36.0299 73.14C36.1299 73.17 36.2299 73.21 36.3399 73.25C36.4599 73.29 36.5799 73.34 36.6999 73.39C36.8299 73.44 36.9499 73.49 37.0699 73.55C37.1999 73.61 37.3399 73.67 37.4699 73.74C37.6299 73.82 37.7799 73.9 37.9299 73.99C38.0099 74.04 38.0999 74.09 38.1799 74.14C38.2499 74.18 38.3199 74.22 38.3899 74.27C38.5499 74.37 38.7099 74.48 38.8699 74.59C38.9699 74.66 39.0699 74.74 39.1699 74.81C39.2699 74.89 39.3799 74.97 39.4799 75.06C39.7799 75.31 40.0799 75.59 40.3499 75.88C40.6799 76.23 40.9899 76.61 41.2799 77.02C41.3799 77.17 41.48 77.32 41.58 77.47C41.89 77.96 42.16 78.49 42.4 79.05C42.79 79.97 43.0899 81 43.2699 82.13H42.2599V83.66H50.2099V82.13H49.3199V82.14ZM46.1299 77.48L46.5899 78.29L46.1299 78.03L44.2599 76.99L44.0199 76.86L44.2599 76.46L44.9099 75.37L46.1199 77.48H46.1299ZM42.1299 73.97L42.3899 74.11L43.2899 74.6L43.99 74.98L44.2599 75.13H41.2799L41.5699 74.74L42.1299 73.97ZM42.0399 73.56L41.5699 73.3L41.2699 73.14L40.3399 72.64L39.83 72.36H40.3399L41.2699 72.34H41.5699L42.3899 72.32H42.9499L42.3899 73.08L42.0399 73.56ZM41.5699 75.45H44.4999L44.2599 75.84L43.99 76.29L43.7499 76.69L43.2799 76.43L42.3799 75.93L41.5599 75.47L41.5099 75.44H41.5599L41.5699 75.45ZM43.8699 77.12L43.9999 77.19L44.2699 77.34L46.1399 78.38L46.2899 78.47H46.1399L44.2699 78.55H43.9999L43.2999 78.59H42.9999L43.2999 78.09L43.8799 77.12H43.8699ZM43.2899 78.9L43.99 78.87H44.2599L46.1299 78.79H46.5199L46.1299 79.19L45.3199 80.05L44.2699 79.47L43.9999 79.32L43.2999 78.93L43.2299 78.89H43.2999L43.2899 78.9ZM43.2899 72.53L43.99 73.76L44.2599 74.23L44.7199 75.02L44.2599 74.77L43.99 74.62L43.2899 74.24L42.3899 73.75L42.3199 73.71L42.3899 73.61L43.24 72.44L43.2799 72.52L43.2899 72.53ZM42.1999 70.64L42.3899 70.97L42.58 71.3H42.1999V70.64ZM42.3899 71.62H42.7599L42.9799 72.01H42.3899L41.5699 72.03H41.2699L40.3399 72.05H39.4699L39.2299 72.07L39.1799 72.01V71.99L38.9699 71.63H42.4L42.3899 71.62ZM35.5199 69.3H34.8599V68.08H35.6199V69.3H35.5299H35.5199ZM35.6099 69.8V71.31H34.8699V69.8H35.6099ZM35.5199 67.63H33.8699V66.38H35.6699V67.63H35.5199ZM31.7199 65.94H29.4999L29.5999 65.39L29.8699 63.87L30.1999 61.98L30.4299 60.67L30.6199 59.57L30.8999 58.01L31.0199 57.35H31.2799H31.5199H31.7199H31.8599H31.9699H32.33H32.4599H32.4999H32.6999H32.8899H33.0599H33.2199H33.5499H33.6599H33.7499H34.0899H34.2899H34.4199L34.5599 58.12L34.7299 59.11L34.8899 60.01L35.08 61.07L35.2899 62.24L35.5399 63.68L35.9299 65.88V65.96H31.7399L31.7199 65.94ZM31.7999 68.07H32.5999V69.29H31.7999V68.07ZM26.2599 69.29H25.5599V68.07H26.3999V69.29H26.2599ZM26.3899 69.79V71.3H25.5999V69.79H26.3899ZM32.7599 39.56H32.6199L32.6899 38.67L32.7599 39.56ZM32.6899 39.87H32.7899L32.8799 41.03L32.9099 41.43H32.4699L32.49 41.18L32.5899 39.87H32.6899ZM33.5299 20.37L33.3699 20.55L33.1999 20.37L33.0999 20.26H33.6099L33.5199 20.36L33.5299 20.37ZM33.6399 20.58L33.7299 20.48L33.7999 20.4L33.83 21.04L33.7299 20.93L33.6399 20.84L33.5299 20.73H33.5199L33.5299 20.7L33.6399 20.58ZM33.3699 20.88L33.5299 21.05L33.6399 21.16L33.6999 21.22H33.0599L33.1999 21.06L33.3699 20.87V20.88ZM33.1999 21.45H33.7199L33.6399 21.55L33.5299 21.68L33.4 21.83L33.1999 21.62L33.0399 21.46H33.1999V21.45ZM33.4099 22.16L33.5299 22.28L33.6399 22.39L33.7299 22.48L33.7899 22.54H33.0999L33.2099 22.41L33.4199 22.16H33.4099ZM33.1999 22.77H33.7999L33.7199 22.85L33.6299 22.95L33.5199 23.07L33.4399 23.15L33.1899 22.88L33.0899 22.77H33.1899H33.1999ZM33.4499 23.48L33.5299 23.56L33.6399 23.68L33.7299 23.78L33.8599 23.93H33.0499L33.1999 23.76L33.4499 23.48ZM33.1999 24.14H33.9099L33.7199 24.36L33.6299 24.47L33.5199 24.6L33.4999 24.62L33.1899 24.28L33.0699 24.15H33.1899L33.1999 24.14ZM33.5199 24.95L33.6299 25.08L33.7199 25.18L33.9699 25.45H33.1099L33.1999 25.34L33.5199 24.96V24.95ZM33.1999 25.67H33.8799L33.7199 25.86L33.6299 25.96L33.5199 26.09L33.4799 26.13L33.1899 25.8L33.0699 25.67H33.1899H33.1999ZM33.4999 26.46L33.5299 26.49L33.6399 26.61L33.7299 26.71L33.9999 27.01H33.0399L33.1999 26.81L33.4999 26.46ZM33.0399 27.23H33.9699L33.7199 27.54L33.6299 27.65L33.5499 27.75L33.5199 27.72L33.1899 27.4L33.0299 27.25H33.0199L33.0299 27.24L33.0399 27.23ZM33.5699 28.06L33.6299 28.12L33.7199 28.2L34.0599 28.53L34.1599 28.63H33.0999L33.1999 28.51L33.5299 28.11L33.58 28.05L33.5699 28.06ZM33.1999 28.85H34.1199L34.0599 28.92L33.7199 29.31L33.6299 29.41L33.5999 29.44L33.5199 29.35L33.1899 28.98L33.0699 28.85H33.1899H33.1999ZM33.6099 29.77L33.6399 29.8L33.7299 29.9L34.0699 30.28L34.1999 30.42H33.0499L33.2099 30.24L33.5399 29.87L33.6199 29.78L33.6099 29.77ZM33.1999 30.63H34.1699L34.0599 30.75L33.7199 31.15L33.6399 31.25L33.5299 31.13L33.1999 30.76L33.08 30.62H33.1999V30.63ZM33.6399 31.6L33.7199 31.68L34.0599 32.06L34.2499 32.27H33.0699L33.1999 32.12L33.5299 31.73L33.6399 31.6ZM33.1999 32.49H34.2699L34.0699 32.74L33.7299 33.16L33.6899 33.2L33.6399 33.14L33.5299 33.02L33.1999 32.64L33.0699 32.49H33.1999ZM33.6899 33.55L33.7199 33.59L34.0599 33.99L34.2599 34.23L34.3899 34.39H33.0099L33.0299 34.37L33.1899 34.17L33.5199 33.77L33.6299 33.64L33.6899 33.57V33.55ZM33.1999 34.6H34.3899L34.2699 34.75L34.0699 34.99L33.7799 35.34L33.7299 35.29L33.6399 35.2L33.5299 35.09L33.1999 34.75L33.0599 34.61H33.1999V34.6ZM33.7199 35.73L33.7799 35.66L34.0599 35.95L34.2599 36.16L34.4699 36.38H33.1599L33.1899 36.34L33.5199 35.95L33.6299 35.82L33.7199 35.72V35.73ZM33.5299 36.7H34.2899L34.2699 36.72L34.0699 36.86L33.8399 37.02L33.7299 36.96L33.6399 36.91L33.5299 36.85L33.2699 36.7H33.5299ZM33.7199 37.48L33.8499 37.39L34.0599 37.51L34.2599 37.63L34.3699 37.69H33.4199L33.5299 37.62L33.6399 37.55L33.7299 37.49L33.7199 37.48ZM33.5299 38H34.4599L34.2599 38.22L34.0599 38.44L33.9299 38.59L33.7199 38.41L33.6299 38.33L33.5199 38.24L33.2499 38.01H33.5199L33.5299 38ZM33.1999 53.01H31.6499L31.7099 52.96L31.8499 52.84L31.9599 52.75L32.3199 52.44L32.4499 52.33L32.49 52.29L32.6699 52.13L32.6899 52.15L32.8799 52.32L32.9499 52.39L33.0399 52.48L33.1999 52.63L33.5299 52.93L33.6199 53.01H33.1999ZM33.3799 53.6C33.3799 53.65 33.3399 53.7 33.2799 53.7H33.1899H33.0299H32.9399H32.8699H32.6799H32.4799H32.4399C32.3899 53.7 32.3499 53.7 32.3099 53.7C32.0699 53.7 32.0999 53.64 32.0999 53.41C32.0999 53.35 32.1399 53.31 32.1999 53.31H32.4499H32.49H32.6899H32.8799H32.9499H33.0399C33.0999 53.31 33.1599 53.31 33.1999 53.31C33.4099 53.32 33.3799 53.38 33.3799 53.6ZM31.2599 53.31C31.4199 53.31 31.4799 53.33 31.4999 53.39C31.5199 53.43 31.5099 53.5 31.5099 53.61C31.5099 53.63 31.5099 53.64 31.4999 53.66C31.4799 53.69 31.4499 53.71 31.4099 53.71H31.2599C31.1099 53.71 30.9899 53.71 30.8799 53.71H30.5999C30.5199 53.71 30.4599 53.71 30.4099 53.71C30.1999 53.7 30.2299 53.64 30.2299 53.42C30.2299 53.36 30.2699 53.32 30.3299 53.32H30.6099H30.8899C31.0599 53.32 31.1799 53.32 31.2699 53.32L31.2599 53.31ZM31.2599 52.71L30.8899 52.34L30.6099 52.07L30.5099 51.97L30.6099 51.89L30.8899 51.66L31.2699 51.35L31.3799 51.26L31.2699 52.63V52.72L31.2599 52.71ZM31.5099 49.61L31.4299 50.67L31.2799 50.54L30.8999 50.21L30.7299 50.06L30.8999 49.93L31.2799 49.64L31.5199 49.45H31.5299L31.5199 49.61H31.5099ZM31.5099 48.71L31.2699 48.49L30.8899 48.15L31.2699 47.85L31.5099 47.66L31.6799 47.53L31.5799 48.77L31.5099 48.71ZM32.4499 21.2L32.49 21.25H31.8599L31.9599 21.14L32.1799 20.9L32.3099 21.05L32.4399 21.2H32.4499ZM32.3399 20.74L32.4499 20.62L32.49 20.58L32.5999 20.46V21.04L32.49 20.92L32.4499 20.87L32.3399 20.74ZM31.9699 21.47H32.5299L32.4999 21.5L32.4599 21.54L32.33 21.68L32.1699 21.85L31.9799 21.62L31.8699 21.49L31.8499 21.47H31.9699ZM32.6099 21.71V22.38L32.4999 22.25L32.4599 22.2L32.33 22.04L32.3099 22.02L32.33 22L32.4599 21.86L32.4999 21.82L32.6099 21.71ZM32.33 22.39L32.4599 22.55L32.4799 22.57H31.7899L31.8799 22.48L31.9899 22.37L32.1699 22.18L32.3399 22.39H32.33ZM32.4999 23.07L32.6099 22.95V23.71L32.4999 23.59L32.4599 23.55L32.33 23.41L32.2699 23.34L32.33 23.27L32.4599 23.13L32.4999 23.09V23.07ZM32.6099 25.87V26.77L32.4999 26.64L32.4599 26.59L32.33 26.43L32.2199 26.3L32.33 26.18L32.4599 26.03L32.4999 25.98L32.6099 25.86V25.87ZM32.4599 25.12L32.33 24.96L32.1999 24.8L32.33 24.65L32.4599 24.5L32.4999 24.45L32.6099 24.33V25.28L32.4999 25.15L32.4599 25.1V25.12ZM32.6099 29.06V30.2L32.4999 30.08L32.4599 30.03L32.33 29.88L32.1099 29.63L32.33 29.38L32.4599 29.23L32.4999 29.18L32.6099 29.06ZM32.4599 28.3L32.33 28.14L32.15 27.92L32.33 27.75L32.4599 27.62L32.4999 27.58L32.6099 27.47V28.47L32.4999 28.34L32.4599 28.29V28.3ZM32.6099 32.71V34.12L32.4999 33.99L32.4599 33.94L32.33 33.78L32.0199 33.4L32.33 33.04L32.4599 32.89L32.4999 32.84L32.6099 32.71ZM32.4599 31.91L32.33 31.75L32.0699 31.44L32.33 31.15L32.4599 31L32.4999 30.95L32.6099 30.83V32.07L32.4999 31.94L32.4599 31.89V31.91ZM32.4999 36.91H32.5299L32.4999 37.21L32.4699 37.6H32.4599L32.33 37.5L31.9699 37.25L31.9399 37.23L31.9699 37.21L32.33 37.01L32.4599 36.94L32.4999 36.92V36.91ZM32.33 35.97L31.9699 35.55L31.9399 35.51L31.9699 35.48L32.33 35.11L32.4599 34.97L32.4999 34.93L32.6099 34.82V36.3L32.4999 36.17L32.4599 36.12L32.33 35.96V35.97ZM32.4199 38.26L32.33 39.39V39.45L31.9699 39.06L31.8599 38.94L31.7599 38.83L31.8599 38.74L31.9699 38.65L32.33 38.34L32.4199 38.26ZM32.33 47.38H33.1799L33.0599 47.51L32.9699 47.61L32.9 47.69L32.7299 47.88L32.7099 47.86L32.5099 47.62L32.4699 47.57L32.3399 47.41L32.3099 47.37H32.3399L32.33 47.38ZM32.3099 47.06L32.33 47.03L32.4599 46.85L32.4999 46.79L32.6999 46.52L32.7299 46.48L32.8899 46.69L32.9599 46.79L33.0499 46.91L33.1699 47.06H32.2999H32.3099ZM32.7199 48.35L32.9 48.56L32.9699 48.65L33.0599 48.76L33.2099 48.93H32.1899L32.33 48.77L32.4599 48.62L32.4999 48.57L32.6999 48.35H32.7099H32.7199ZM32.3399 49.25H33.2799L33.2299 49.3L33.0699 49.45L32.9799 49.54L32.9099 49.61L32.7299 49.78L32.5299 49.59L32.49 49.55L32.3599 49.43L32.1699 49.26H32.3599L32.3399 49.25ZM33.2299 48.46L33.0699 48.27L32.9799 48.16L32.9399 48.11L32.9799 48.07L33.0699 47.97L33.2299 47.79L33.4199 47.58L33.5199 48.8L33.2299 48.45V48.46ZM33.2299 46.6L33.0699 46.4L32.9799 46.28L32.9399 46.23L32.9799 46.17L33.0699 46.04L33.2299 45.82L33.2799 45.75L33.3599 46.76L33.2299 46.6ZM33.0699 45.51L32.9799 45.64L32.9099 45.74L32.74 45.97L32.7199 45.95L32.5199 45.7L32.4799 45.65L32.3799 45.52H33.0899L33.0699 45.51ZM32.9799 45.18H32.3699L32.4799 45L32.5199 44.93L32.7199 44.59L32.9099 44.91L32.9799 45.04L33.0599 45.18H32.9799ZM32.4799 46.14L32.5199 46.19L32.5399 46.22L32.5199 46.25L32.4799 46.31L32.3499 46.49L32.0699 46.87L32.1599 45.73L32.3499 45.97L32.4799 46.14ZM32.3499 47.89L32.4799 48.05L32.5199 48.1V48.11L32.4799 48.15L32.3499 48.3L31.9899 48.69L31.9199 48.77L31.9899 47.83L32.0199 47.49L32.3499 47.88V47.89ZM31.9899 49.51L32.3499 49.84L32.4799 49.96H32.4999L32.4799 49.99L32.3499 50.11L31.9899 50.44L31.8799 50.54L31.7599 50.65L31.8599 49.39L31.8799 49.41L31.9899 49.51ZM32.3499 50.54L32.4799 50.42L32.5199 50.38L32.7199 50.19L32.9 50.35L32.9699 50.42L33.0599 50.51L33.2199 50.66L33.3699 50.8H32.0499L32.33 50.54H32.3499ZM32.3499 51.11H33.3899L33.2299 51.25L33.0699 51.39L32.9799 51.47L32.9099 51.53L32.7199 51.69H32.7099L32.5199 51.53L32.4799 51.49L32.3499 51.37L32.0699 51.11H32.3499ZM33.24 50.23L33.08 50.08L32.99 49.99L32.9699 49.97L32.99 49.95L33.08 49.86L33.24 49.71L33.5699 49.4L33.6699 50.61L33.5599 50.51L33.2299 50.21L33.24 50.23ZM33.6799 46.65L33.5999 45.58L33.6799 45.65L33.7699 45.72L34.1099 46.01L34.3099 46.18L34.4399 46.29L34.3099 46.41L34.1099 46.6L33.7699 46.92L33.7099 46.98L33.6799 46.65ZM33.6799 44.96L33.5699 45.06L33.5499 45.08L33.4299 43.62L33.5599 43.73L33.6699 43.82L33.7599 43.9L34.0999 44.2L34.2899 44.36L34.0999 44.54L33.7599 44.87L33.6699 44.95L33.6799 44.96ZM33.4 43.13L33.2999 41.81L33.58 42.06L33.6899 42.16L33.7799 42.24L34.0699 42.51L33.7799 42.79L33.6899 42.87L33.58 42.97L33.4099 43.13H33.4ZM33.2599 41.36V41.18L33.1399 39.88L33.24 39.97L33.5699 40.26L33.6799 40.36L33.7699 40.44L33.9799 40.63L33.7699 40.85L33.6799 40.94L33.5699 41.05L33.2599 41.37V41.36ZM33.1399 43.88L33.2099 44.81L33.08 44.59L32.99 44.43L32.9199 44.3V44.28V44.26L32.99 44.13L33.08 43.97L33.1399 43.87V43.88ZM32.9099 43.64L32.7199 43.96L32.5299 43.64V43.62H32.9299V43.64H32.9099ZM32.5199 44.26V44.28V44.3L32.4799 44.37L32.3499 44.6L32.24 44.8L32.3099 43.9L32.3499 43.97L32.4799 44.19L32.5199 44.26ZM32.1999 41.26L31.9899 41.05L31.8799 40.94L31.7399 40.79L31.5699 40.62L31.7399 40.47L31.8799 40.34L31.9899 40.24L32.2999 39.96L32.1999 41.26ZM32.15 41.91L32.0599 43.05L31.9899 42.99L31.8799 42.89L31.7399 42.75L31.5399 42.55L31.4899 42.5L31.5399 42.46L31.7399 42.27L31.8799 42.14L31.9899 42.04L32.15 41.9V41.91ZM31.9899 43.72H31.9999L31.9899 43.87L31.8999 45L31.8799 44.98L31.7399 44.84L31.5399 44.64L31.2999 44.41L31.2599 44.37L31.2999 44.33L31.5399 44.12L31.7399 43.94L31.8799 43.81L31.9899 43.72ZM31.8499 45.68L31.7499 46.9L31.5499 46.7L31.3099 46.47L31.1199 46.29L31.3099 46.13L31.5499 45.93L31.7499 45.76L31.8599 45.67L31.8499 45.68ZM31.7299 51.22L31.7499 51.24L31.8899 51.37L31.9999 51.47L32.3599 51.8L32.4799 51.91L32.3599 52.01L31.9999 52.32L31.8899 52.41L31.7499 52.54L31.6199 52.65L31.7299 51.22ZM33.5699 52.49L33.24 52.19L33.08 52.04L32.99 51.95L32.9499 51.91L32.99 51.87L33.08 51.79L33.24 51.65L33.5699 51.37L33.6799 51.28L33.7299 51.24L33.7699 51.72L33.8499 52.74L33.7699 52.66L33.6799 52.58L33.5699 52.48V52.49ZM33.7599 47.75L33.74 47.43L33.7599 47.45L34.0999 47.72L34.2999 47.88L34.5599 48.09L34.6199 48.14L34.5599 48.19L34.2999 48.43L34.0999 48.61L33.8499 48.84L33.7599 47.76V47.75ZM34.0999 49.5L34.2999 49.66L34.5599 49.86L34.7299 50L34.7899 50.04L34.7299 50.09L34.5599 50.24L34.2999 50.47L34.0999 50.65L33.9999 50.74L33.8899 49.34L34.0999 49.51V49.5ZM34.5699 51.59L34.74 51.74L34.9 51.87L34.9999 51.95L34.9 52.05L34.74 52.21L34.5699 52.38L34.3099 52.64L34.1699 52.78L34.1099 52.03L34.0399 51.14L34.1099 51.2L34.3099 51.37L34.5699 51.59ZM34.0999 53.31H34.2999H34.5599H34.7299H34.8899C34.9699 53.31 35.03 53.31 35.08 53.31C35.31 53.31 35.2799 53.38 35.2799 53.6C35.2799 53.65 35.2399 53.7 35.1799 53.7H35.0699H34.8799H34.7199H34.5499C34.4399 53.7 34.3599 53.7 34.2899 53.7C34.1999 53.7 34.1299 53.7 34.0899 53.69C33.9799 53.66 33.9999 53.59 33.9999 53.41C33.9999 53.36 34.0399 53.31 34.0899 53.31H34.0999ZM35.0899 53H34.3899L34.5699 52.82L34.74 52.65L34.9 52.49L35.0899 52.31L35.2499 52.16L35.2999 52.2L35.5499 52.41L35.9399 52.73L36.0499 52.82L36.2699 53H35.0899ZM35.2299 51.73L35.0899 51.62L34.9 51.47L34.74 51.34L34.5699 51.19L34.4799 51.12H35.8499L35.5499 51.42L35.2999 51.67L35.2299 51.74V51.73ZM35.5499 50.8H34.4L34.5699 50.66L34.74 50.51L34.9 50.37L35.0499 50.24L35.0899 50.27L35.2999 50.43L35.5499 50.63L35.7799 50.81H35.5499V50.8ZM35.0399 49.83L34.9 49.72L34.74 49.6L34.5699 49.46L34.3099 49.26L34.2799 49.24H35.7299L35.5499 49.39L35.2999 49.61L35.0899 49.79L35.0399 49.83ZM35.5499 48.92H34.2199L34.3099 48.84L34.5699 48.6L34.74 48.44L34.8699 48.32L34.9 48.34L35.0899 48.49L35.2999 48.65L35.5499 48.85L35.6299 48.92H35.5499ZM34.9 47.88L34.8599 47.92L34.74 47.82L34.5699 47.68L34.3099 47.47L34.1699 47.36H35.49L35.3099 47.52L35.0999 47.71L34.9099 47.88H34.9ZM35.2899 47.05H34.08L34.0999 47.03L34.2999 46.84L34.5599 46.59L34.6699 46.49L34.74 46.55L34.9 46.68L35.0899 46.84L35.2999 47.01L35.3399 47.05H35.2999H35.2899ZM34.74 46L34.6599 46.08L34.5699 46L34.3099 45.78L34.1099 45.61L33.9799 45.5H35.2899L35.0999 45.68L34.9099 45.86L34.7499 46.01L34.74 46ZM35.0899 45.18H33.9L34.0999 44.98L34.2999 44.78L34.5199 44.57L34.5599 44.61L34.7299 44.76L34.8899 44.9L35.08 45.06L35.2099 45.18H35.08H35.0899ZM34.5699 44.09L34.5199 44.14L34.3099 43.96L34.1099 43.78L33.9199 43.62H35.0599L34.9099 43.77L34.7499 43.92L34.58 44.09H34.5699ZM34.9 43.3H33.6599H33.6699L33.7599 43.21L34.0999 42.89L34.2899 42.71L34.3099 42.73L34.5699 42.97L34.74 43.13L34.9 43.27L34.9399 43.31H34.9V43.3ZM34.2799 42.27L34.0999 42.11L33.7599 41.8L33.6899 41.74H34.8399L34.74 41.83L34.5699 42L34.3099 42.25L34.2899 42.27H34.2799ZM34.74 41.42H33.6099L33.6699 41.36L33.7599 41.27L34.0999 40.92L34.2099 40.81L34.3099 40.9L34.5699 41.14L34.74 41.3L34.8699 41.41H34.74V41.42ZM34.1899 40.39L34.0999 40.31L33.7599 40L33.6699 39.92L33.6099 39.86H34.7099L34.5699 40L34.3099 40.27L34.1999 40.38L34.1899 40.39ZM34.5699 39.55H33.5099L33.5699 39.49L33.6799 39.37L33.7699 39.27L33.9999 39.02L34.1099 39.12L34.3099 39.3L34.5699 39.53L34.5999 39.56H34.5699V39.55ZM33.5699 38.64L33.6799 38.73L33.7599 38.8L33.6799 38.89L33.5699 39.01L33.24 39.37L33.1099 39.51L33.08 39.15L32.9999 38.14L33.08 38.21L33.24 38.35L33.5699 38.64ZM33.08 43.13V43.29H32.3599L32.4799 41.73H32.9699L32.99 41.96L33.08 43.13ZM32.6299 18.38H32.33V18.17H32.6299V18.38ZM32.3499 18.6H32.6299V18.81H32.33V18.6H32.3499ZM32.3499 19.03H32.6299V19.24H32.33V19.03H32.3499ZM32.3499 19.46H32.6299V19.67H32.33V19.46H32.3499ZM32.3499 19.89H32.6299V20.04H32.33V19.89H32.3499ZM32.3499 20.27H32.49L32.3599 20.42L32.2299 20.56L31.9999 20.3L31.9799 20.27H32.3599H32.3499ZM32.1099 18.39H31.8499V18.18H32.1099V18.39ZM31.8899 18.61H32.1099V18.82H31.8299V18.61H31.8899ZM31.8899 19.04H32.1099V19.25H31.8099V19.04H31.8899ZM31.8899 19.47H32.1099V19.68H31.7899V19.47H31.8899ZM31.8899 19.9H32.1099V20.05H31.7699V19.9H31.8899ZM31.8899 20.51L31.9999 20.63L32.08 20.72L31.9999 20.8L31.8899 20.91L31.7499 21.07L31.7199 21.1L31.7499 20.55V20.35L31.8899 20.5V20.51ZM31.7499 21.64L31.8899 21.81L31.9999 21.94L32.0399 21.99L31.9999 22.03L31.8899 22.14L31.7499 22.29L31.6599 22.39L31.6999 21.58L31.7499 21.64ZM31.8899 22.76H32.49L32.3599 22.91L32.15 23.14L32.0099 22.98L31.8999 22.86L31.7999 22.75H31.8999L31.8899 22.76ZM32.1399 23.47L32.3499 23.7L32.4799 23.84L32.5199 23.89L32.5399 23.91H31.7299H31.7399L31.8799 23.74L31.9899 23.62L32.1299 23.46L32.1399 23.47ZM31.7499 24.13H32.5199L32.49 24.16L32.3599 24.31L32.0899 24.61L32.0099 24.51L31.8999 24.38L31.7599 24.21L31.6999 24.13H31.7599H31.7499ZM32.08 24.94L32.3599 25.28L32.49 25.44H31.6299L31.7499 25.3L31.8899 25.14L31.9999 25.02L32.08 24.94ZM31.7499 25.66H32.5099L32.49 25.69L32.3599 25.84L32.1099 26.12L32.0099 26L31.8999 25.87L31.7599 25.7L31.7299 25.66H31.7599H31.7499ZM32.0999 26.45L32.3599 26.76L32.49 26.92L32.5299 26.97L32.5599 27.01H31.5999L31.7499 26.84L31.8899 26.68L31.9999 26.56L32.0999 26.45ZM31.7499 27.22H32.5699L32.5299 27.26L32.49 27.3L32.3599 27.43L32.0399 27.74L31.9999 27.69L31.8899 27.56L31.7499 27.38L31.6199 27.22H31.7499ZM31.9999 28.07L32.0199 28.05L32.3599 28.46L32.49 28.62H31.4299L31.5499 28.51L31.7499 28.31L31.8899 28.17L31.9999 28.07ZM31.5399 28.84H32.5099L32.49 28.87L32.3599 29.02L31.9999 29.42V29.44L31.8899 29.34L31.7499 29.17L31.5499 28.94L31.4799 28.86H31.5499L31.5399 28.84ZM31.9799 29.76L31.9999 29.78L32.3599 30.18L32.49 30.33L32.5299 30.38L32.5499 30.41H31.3999L31.5399 30.26L31.7399 30.03L31.8799 29.87L31.9699 29.77L31.9799 29.76ZM31.5399 30.62H32.5099L32.4799 30.65L32.3499 30.8L31.9899 31.2L31.9499 31.25L31.8899 31.18L31.7499 31.01L31.5499 30.77L31.4299 30.63H31.5499L31.5399 30.62ZM31.9499 31.58L31.9999 31.64L32.3599 32.06L32.49 32.22L32.5199 32.26H31.3399L31.5399 32.03L31.7399 31.8L31.8799 31.64L31.9399 31.58H31.9499ZM31.5399 32.48H32.5199L32.49 32.52L32.3599 32.67L31.9999 33.08L31.9099 33.19V33.17L31.7499 32.99L31.5499 32.74L31.3299 32.47H31.5499L31.5399 32.48ZM31.8999 33.54L31.9999 33.66L32.3599 34.1L32.49 34.26L32.5299 34.31L32.5699 34.36H31.1899L31.2999 34.23L31.5399 33.95L31.7399 33.71L31.8799 33.54H31.8999ZM31.2999 34.59H32.5299L32.49 34.63L32.3599 34.77L31.9999 35.14L31.8899 35.25L31.8199 35.32L31.7399 35.23L31.5399 34.99L31.2999 34.71L31.1999 34.59H31.2999ZM31.8099 35.65L31.8899 35.75L31.9999 35.87L32.3599 36.29L32.4299 36.37H31.1199L31.3099 36.17L31.5499 35.92L31.7499 35.71L31.8099 35.64V35.65ZM31.2999 36.68H32.24L31.9999 36.82L31.8899 36.88L31.7499 36.96L31.6799 37L31.5399 36.9L31.2999 36.73L31.2199 36.67H31.2999V36.68ZM31.6599 37.37L31.7499 37.43L31.8899 37.53L31.9999 37.6L32.0899 37.67H31.1299L31.2999 37.57L31.5399 37.44L31.6599 37.37ZM31.2999 37.98H32.2499L31.9999 38.2L31.8899 38.29L31.7499 38.42L31.5799 38.57L31.5399 38.53L31.2999 38.27L31.0399 37.99H31.2999V37.98ZM31.5499 39.01L31.7399 39.22L31.8799 39.38L31.9899 39.5L32.0299 39.54H30.9499L31.2999 39.23L31.5399 39.02H31.5499V39.01ZM31.2999 39.85H31.9299L31.8899 39.89L31.7499 40.02L31.5499 40.21L31.3599 40.38L31.3099 40.33L30.9299 39.94L30.8499 39.86H31.3099L31.2999 39.85ZM31.3399 40.81L31.5399 41.01L31.7399 41.22L31.8799 41.37L31.9199 41.41H30.6599L30.9099 41.19L31.2899 40.85L31.3299 40.81H31.3399ZM30.9199 41.73H31.8599L31.7499 41.83L31.5499 42.02L31.3099 42.24L31.2699 42.27L30.9299 41.94L30.7099 41.73H30.9299H30.9199ZM31.2999 42.74L31.5399 42.97L31.7399 43.16L31.8799 43.29H30.5999L30.6399 43.25L30.9199 43L31.2599 42.69L31.2999 42.73V42.74ZM30.6499 43.61H31.6299L31.5399 43.69L31.2999 43.9L31.0299 44.13L30.9199 44.02L30.6399 43.75L30.4899 43.6H30.6399L30.6499 43.61ZM31.0299 44.56L31.3099 44.83L31.5499 45.06L31.6599 45.17H30.3299L30.4599 45.06L30.6499 44.89L30.9299 44.65L31.0299 44.56ZM30.4599 45.49H31.5899L31.5499 45.52L31.3099 45.72L30.9299 46.04L30.8899 46.07L30.6499 45.85L30.4599 45.67L30.2699 45.49H30.4599ZM30.8799 46.49L30.9299 46.54L31.3099 46.9L31.4699 47.05H30.2199H30.2299L30.4599 46.85L30.6499 46.69L30.8799 46.5V46.49ZM30.2299 47.36H31.3899L31.3099 47.42L30.9299 47.72L30.6899 47.91L30.6499 47.88L30.4599 47.7L30.2299 47.49L30.0799 47.36H30.2299ZM30.6599 48.34L30.6799 48.32L30.9299 48.55L31.3099 48.89L31.3399 48.92H29.9199L30.2299 48.68L30.4599 48.5L30.6499 48.35L30.6599 48.34ZM30.2299 49.24H31.2799L30.9299 49.51L30.6499 49.72L30.5099 49.83L30.4599 49.78L30.2299 49.58L29.8999 49.29L29.8299 49.23H30.2299V49.24ZM30.4999 50.24L30.6499 50.37L30.9299 50.61L31.1499 50.8H29.7799L29.8899 50.71L30.2199 50.45L30.4499 50.27L30.4899 50.24H30.4999ZM29.8899 51.11H31.0599L30.9199 51.23L30.6399 51.46L30.4499 51.62L30.3199 51.73L30.2199 51.63L29.8899 51.3L29.6999 51.11H29.8899ZM30.2999 52.15L30.4499 52.3L30.6399 52.49L30.9199 52.76L31.1599 53H29.2799L29.5099 52.81L29.6199 52.72L29.8899 52.5L30.2199 52.22L30.2999 52.15ZM30.2199 54H36.9199V54.47H28.5599V54H30.2299H30.2199ZM39.0399 69.78H39.7899V71.29H39.0399V69.78ZM38.9399 69.28V68.06H39.7599V69.28H38.9399ZM39.49 67.62H36.8599L37.08 67.44L37.4799 67.12L37.9399 66.75L38.1899 66.55L38.2699 66.49L38.4 66.56L38.8799 66.82L39.1799 66.98L39.49 67.15L40.3599 67.62L40.3899 67.64H39.49V67.62ZM37.9499 70.35L38.1999 70.82L38.4099 71.2L38.4599 71.29H37.8799V70.21L37.9499 70.35ZM37.9199 69.28V68.06H38.7199V69.28H37.9199ZM38.4099 70.54L38.1999 70.16L37.9999 69.79H38.8199V71.3L38.4099 70.55V70.54ZM37.6999 68.06V69.28H36.9V68.06H37.6999ZM38.1999 65.95C38.1199 65.96 38.0299 65.95 37.9499 65.93C37.8199 65.9 37.67 65.83 37.49 65.72C37.38 65.66 37.2499 65.58 37.0899 65.49C36.9799 65.43 36.8499 65.35 36.7199 65.28L36.4999 65.16H39.4099L39.1799 65.34C39.0699 65.43 38.9699 65.51 38.8799 65.57C38.6899 65.72 38.54 65.82 38.4 65.88C38.33 65.91 38.2599 65.93 38.1899 65.94L38.1999 65.95ZM36.1799 64.7L36.0499 63.95L35.9399 63.32L35.8199 62.63L35.9399 62.71L36.0499 62.78L36.3599 62.97L36.7199 63.2L37.0899 63.43L37.3399 63.59L37.0899 63.83L36.7199 64.19L36.3599 64.54L36.1899 64.71L36.1799 64.7ZM36.2499 67.62H35.9199V66.37H36.0299L36.0499 66.47L36.2499 67.61V67.62ZM35.2999 54.81L35.0899 55.02L34.9099 55.2H34.9L34.74 55.03L34.5699 54.85L34.5199 54.79H35.3199L35.2999 54.81ZM35.4299 55.13V55.72L35.2999 55.59L35.1399 55.43L35.2999 55.27L35.4299 55.14V55.13ZM34.5699 55.3L34.6899 55.43L34.5699 55.56L34.3099 55.83V55.04L34.5699 55.31V55.3ZM34.5699 56L34.74 55.82L34.9 55.66H34.9099L35.0899 55.83L35.2999 56.04L35.3199 56.06H35.0999H34.9099H34.7499H34.58H34.5299L34.58 56.01L34.5699 56ZM35.0899 57.59L35.2999 57.74L35.5499 57.92L35.9399 58.2L36.0499 58.28L36.08 58.3L36.0499 58.33L35.9399 58.45L35.5499 58.87L35.2999 59.14L35.2199 59.22L35.0899 58.5L34.9 57.45L35.0899 57.58V57.59ZM35.6999 61.96L35.5499 61.11L35.33 59.87L35.5499 60.02L35.9399 60.29L36.0499 60.37L36.3599 60.58L36.7199 60.83H36.74L36.7199 60.86L36.3599 61.25L36.0499 61.58L35.9399 61.7L35.6999 61.95V61.96ZM36.3599 65.44L36.7199 65.63L37.0899 65.83L37.2599 65.92H36.4L36.3599 65.66L36.3099 65.4L36.3599 65.42V65.44ZM39.1899 64.84H36.4799L36.7199 64.61L37.0899 64.25L37.49 63.87L37.6199 63.75L37.9599 63.96L38.2099 64.12L38.4199 64.25L38.9 64.55L39.1999 64.74L39.3799 64.85H39.1999L39.1899 64.84ZM37.58 63.35L37.49 63.3L37.0899 63.05L36.7199 62.82L36.3599 62.59L36.0899 62.42H38.5399L38.4099 62.54L38.1999 62.74L37.9499 62.98L37.5699 63.34L37.58 63.35ZM38.4199 62.1H35.9999L36.0499 62.04L36.3599 61.71L36.7199 61.32L36.9999 61.03L37.0999 61.1L37.4999 61.38L37.9599 61.7L38.2099 61.88L38.4199 62.03L38.5199 62.1H38.4199ZM36.9599 60.62L36.7299 60.46L36.3699 60.21L36.0599 60L35.9499 59.92L35.7199 59.76H37.7799L37.4999 60.06L37.0999 60.48L36.9599 60.63V60.62ZM37.4999 59.44H35.4599L35.5599 59.33L35.9499 58.91L36.0599 58.79L36.3499 58.49L36.3699 58.51L36.7299 58.77L37.0999 59.04L37.4999 59.33L37.65 59.44H37.4999ZM36.3099 58.07L36.0599 57.89L35.9499 57.81L35.5599 57.53L35.3099 57.35L35.2599 57.31H35.3099H35.5599H35.9499H36.0599H36.3699H36.7299H37.0299L36.7299 57.63L36.3699 58.02L36.3099 58.08V58.07ZM36.7299 55.56L36.5899 55.41L36.7299 55.26L36.8699 55.11V55.71L36.7299 55.56ZM36.7599 56.05H36.3699H36.0599H35.9699L36.0599 55.96L36.3699 55.64L36.7299 56.02L36.7599 56.05ZM36.7299 54.81L36.3699 55.18L36.0599 54.86L35.9699 54.77H36.7499L36.7199 54.8L36.7299 54.81ZM36.0599 55.32L36.15 55.41L36.0599 55.5L35.9499 55.61L35.7499 55.82V55L35.9499 55.21L36.0599 55.32ZM33.0899 55.29L33.1999 55.41L33.0899 55.53L32.9999 55.63L32.9299 55.71L32.8899 55.75V55.07L32.9299 55.11L32.9999 55.19L33.0899 55.29ZM33.0399 54.78H33.7899L33.7699 54.8L33.6799 54.89L33.5699 55L33.4099 55.17L33.24 54.99L33.08 54.82L33.0299 54.77L33.0399 54.78ZM33.0899 55.99L33.2499 55.82L33.4199 55.64L33.58 55.81L33.6899 55.92L33.7799 56.01V56.03H33.6899H33.58H33.2499H33.0899H33.0499L33.0899 55.98V55.99ZM33.7699 55.56L33.6799 55.47L33.6299 55.41L33.6799 55.35L33.7699 55.26L33.9999 55.01V55.8L33.7699 55.55V55.56ZM31.7499 55.4V55.42L31.5499 55.62L31.4499 55.72V55.09L31.5499 55.19L31.7499 55.39V55.4ZM31.5699 54.78H32.3899L32.3599 54.81L31.9999 55.17L31.9799 55.19L31.8899 55.1L31.7499 54.95L31.5699 54.77V54.78ZM31.7499 55.86L31.8899 55.72L31.9799 55.63L31.9999 55.65L32.3599 56.01L32.3799 56.03H31.9999H31.8899H31.7499H31.5799L31.7499 55.86ZM32.3599 55.56L32.2099 55.41L32.3599 55.26L32.49 55.13L32.5299 55.09L32.5599 55.06V55.78L32.5299 55.75L32.49 55.71L32.3599 55.58V55.56ZM28.7699 66.36H28.9999L28.8699 67.12L28.8299 67.37L28.7799 67.33L28.0999 66.78L27.5799 66.36H28.7799H28.7699ZM28.2199 65.92L28.7699 65.62L28.8699 65.57L29.1699 65.41L29.0799 65.92H28.2199ZM28.7399 68.05H29.5199V69.27H28.7399V68.05ZM29.5199 67.61H29.2399L29.4599 66.36H29.5899V67.61H29.5299H29.5199ZM29.2999 64.69L29.1899 64.59L28.8699 64.28L28.7699 64.18L28.1399 63.57L28.7699 63.18L28.8699 63.12L29.1899 62.92L29.5099 62.72L29.6199 62.65L29.6599 62.63L29.6199 62.85L29.5099 63.48L29.2899 64.71L29.2999 64.69ZM29.6299 61.79L29.5199 61.67L29.1999 61.33L28.8799 60.98L28.7799 60.87L28.7599 60.85H28.7799L28.8799 60.77L29.1999 60.54L29.5199 60.31L29.6299 60.23L29.8999 60.04L30.1499 59.86L29.8999 61.3L29.7899 61.94L29.6299 61.77V61.79ZM30.4599 56.03H30.2299H30.2099L30.2299 56.01L30.4599 55.77L30.5799 55.64L30.6499 55.71L30.9299 56L30.9599 56.03H30.6499H30.4599ZM30.5799 57.45L30.4599 58.12L30.2599 59.23L30.2199 59.19L29.8899 58.83L29.6199 58.54L29.5099 58.42L29.3999 58.3L29.5099 58.22L29.6199 58.14L29.8899 57.95L30.2199 57.71L30.4499 57.54L30.5699 57.45H30.5799ZM30.2299 55.27L30.3699 55.41L30.2299 55.55L30.0099 55.78V55.04L30.2299 55.27ZM30.1899 54.78H30.9699L30.9299 54.83L30.6499 55.12L30.5799 55.19L30.4599 55.06L30.2299 54.82L30.1899 54.78ZM30.9299 55.54L30.7999 55.41L30.9299 55.28L31.1299 55.07V55.75L30.9299 55.54ZM28.7699 55.22L28.8699 55.31L28.9599 55.4L28.8699 55.49L28.7699 55.58L28.5799 55.76V55.02L28.7699 55.2V55.22ZM28.7599 54.77H29.6299L29.5199 54.88L29.1999 55.19L28.8799 54.88L28.7799 54.79H28.7699L28.7599 54.77ZM28.8699 55.92L29.1899 55.61L29.5099 55.92L29.6099 56.01H29.1899H28.8699H28.7799L28.8699 55.92ZM29.5199 55.49L29.4199 55.4L29.5199 55.31L29.6299 55.2L29.6999 55.13V55.65L29.6299 55.58L29.5199 55.48V55.49ZM28.7699 57.32H29.1899H29.5099H29.6199H29.8899H30.1999L29.8899 57.54L29.6199 57.74L29.5099 57.82L29.1899 58.05L28.8699 57.72L28.7699 57.61L28.4999 57.32H28.7699ZM29.1899 58.52L29.5099 58.86L29.6199 58.98L29.8899 59.27L30.0299 59.42H27.8399L28.0899 59.24L28.7699 58.75L28.8699 58.68L29.1499 58.48L29.1999 58.53L29.1899 58.52ZM28.0899 59.73H29.7699L29.6199 59.83L29.5099 59.91L29.1899 60.14L28.8699 60.37L28.7699 60.44L28.5299 60.61L28.0899 60.14L27.7099 59.74H28.0899V59.73ZM28.7699 61.31L28.8699 61.42L29.1899 61.77L29.4799 62.08H26.9599L27.2799 61.85L27.3899 61.77L28.0799 61.29L28.4799 61.01L28.7599 61.31H28.7699ZM27.2899 62.39H29.3999L29.1899 62.52L28.8699 62.72L28.7699 62.78L28.0899 63.2L27.9099 63.31L27.3999 62.82L27.2899 62.71L26.9399 62.38H27.2899V62.39ZM28.0899 63.94L28.7699 64.59L28.8699 64.69L28.9999 64.82H26.1199L26.2999 64.71L26.6699 64.48L26.8499 64.36L27.2899 64.08L27.3999 64.01L27.8599 63.72L28.0899 63.94ZM26.2899 65.13H28.9799L28.8599 65.19L28.7599 65.25C28.4799 65.4 28.2699 65.53 28.0799 65.64C27.7799 65.81 27.5799 65.91 27.3899 65.93C27.3499 65.93 27.3099 65.93 27.2799 65.93C27.1499 65.91 27.0099 65.85 26.8399 65.74C26.7799 65.7 26.7199 65.66 26.6599 65.61C26.5499 65.53 26.4299 65.44 26.2899 65.32L26.0599 65.14H26.2899V65.13ZM27.1899 66.45L27.2799 66.52L27.3899 66.61L28.0799 67.17L28.5999 67.59H25.0699L25.9699 67.1L26.2799 66.93L26.6499 66.73L26.8299 66.63L27.1799 66.44L27.1899 66.45ZM28.5099 68.03V69.25H27.7099V68.03H28.5099ZM27.2799 70.66L27.3899 70.45L27.4699 70.3V71.26H26.9499L27.2799 70.65V70.66ZM26.8399 70.81L26.6599 71.15L26.6399 71.18V69.75H27.4099L27.3899 69.78L27.2799 69.99L26.8399 70.8V70.81ZM27.3899 69.25H26.6499V68.03H27.4899V69.25H27.3899ZM26.6499 72.54L26.7599 72.69L26.6499 72.75C26.5299 72.81 26.3999 72.88 26.2799 72.94C26.1799 73 26.0699 73.06 25.9699 73.11L25.9199 73.14L25.9699 73.04L26.2799 72.47L26.4199 72.21L26.6499 72.53V72.54ZM26.6499 72.16L26.5399 72.01L26.6499 71.81L26.7699 71.58H27.0399L27.2699 71.99L27.3799 72.19L27.4699 72.36L27.3799 72.4L27.2699 72.45C27.1699 72.5 27.0599 72.54 26.9599 72.59L26.8299 72.41L26.6499 72.15V72.16ZM27.3899 71.74L27.2999 71.57H27.9099L28.0799 72.09V72.12C27.9499 72.17 27.8199 72.22 27.6899 72.27L27.3899 71.74ZM28.0799 71.26H27.6899V69.89L27.7699 69.75H28.5299V71.26H28.0899H28.0799ZM28.7599 71.57H28.8099L28.8599 71.8V71.86L28.7599 71.89C28.6099 71.94 28.4499 71.99 28.2999 72.04L28.1399 71.57H28.7599ZM28.8599 71.26H28.7499V69.75H29.5399V71.26H28.8599ZM29.1799 71.57H29.9799L29.8799 71.59C29.7899 71.61 29.6999 71.63 29.6099 71.65L29.4999 71.68C29.3899 71.71 29.2799 71.73 29.1799 71.76L29.0799 71.79L29.0299 71.57H29.1799ZM29.8799 71.26H29.7499V69.75H30.5199V71.26H29.8799ZM30.4399 69.25H29.7199V68.03H30.5599V69.25H30.4399ZM30.4399 67.59H29.7799V66.34H31.6199V67.59H30.4499H30.4399ZM31.5999 68.03V69.25H30.7799V68.03H31.5999ZM30.7399 69.76H31.6399V71.27H30.7399V69.76ZM33.8099 68.03H34.65V69.25H33.8099V68.03ZM33.7899 69.76H34.6599V71.27H33.7899V69.76ZM35.9199 71.58H36.5399L36.4999 71.79L36.3399 71.75C36.2399 71.72 36.1399 71.7 36.0299 71.67L35.9199 71.64C35.8299 71.62 35.7499 71.6 35.6599 71.58H35.9199ZM36.3399 71.27H35.8499V69.76H36.6199V71.27H36.3499H36.3399ZM36.3399 69.26H35.8499V68.04H36.6699V69.26H36.3399ZM36.6399 67.36L36.4599 66.35H37.8899L37.4699 66.69L37.0699 67.01L36.6999 67.31L36.6399 67.36ZM36.7699 71.58H37.4399L37.2899 72.04C37.2199 72.02 37.15 71.99 37.08 71.97C36.96 71.93 36.8399 71.89 36.7199 71.85L36.7799 71.58H36.7699ZM37.0699 71.27H36.83V69.76H37.6199V71.27H37.4599H37.0599H37.0699ZM37.6599 71.58H38.2699L38.1799 71.75L37.9299 72.2L37.8899 72.28C37.7599 72.22 37.62 72.17 37.49 72.12L37.6699 71.58H37.6599ZM38.1799 72.2L38.3899 71.83L38.5299 71.58H38.6099L38.8599 72.05L38.9199 72.16L38.8599 72.24L38.5999 72.6C38.5299 72.56 38.4599 72.53 38.3799 72.5L38.1699 72.4L38.08 72.36L38.1699 72.19L38.1799 72.2ZM38.8599 72.62L39.0399 72.37L39.1599 72.6L39.4 73.03C39.32 72.98 39.2399 72.94 39.1599 72.9C39.0599 72.84 38.9599 72.79 38.8599 72.74L38.7999 72.71L38.8599 72.63V72.62ZM39.9799 71.26V69.75H40.7699V71.26H39.9799ZM41.9799 70.29V71.26H40.99V69.75H41.7099L41.99 70.23C41.99 70.23 41.9799 70.27 41.9799 70.29ZM40.9499 69.25V68.03H41.6599V69.25H40.9499ZM41.2699 66.34H41.9299L41.8899 67.59H41.0199L40.6099 66.34H41.2699ZM40.7299 68.03V69.25H39.9499V68.03H40.7299ZM40.3399 66.94L40.4499 67.28L40.3399 67.22L39.4699 66.75L39.1599 66.58L38.8599 66.42L38.7199 66.35H40.15L40.3399 66.94ZM39.9999 65.9H38.9299L39.1599 65.72L39.4699 65.47L39.7799 65.22L39.9999 65.9ZM38.8799 62.47L39.1599 63.32L39.4699 64.26L39.58 64.59L39.4699 64.52L39.1599 64.33L38.8599 64.14L38.3799 63.84L38.1699 63.71L37.9199 63.55L37.8199 63.49L37.9199 63.39L38.1699 63.15L38.3799 62.95L38.8599 62.49L38.8799 62.47ZM38.0299 59.87L38.1799 60.32L38.3899 60.95L38.6699 61.81L38.3899 61.61L38.1799 61.46L37.9299 61.28L37.4699 60.96L37.1899 60.77L37.4699 60.47L37.9299 59.97L38.0399 59.86L38.0299 59.87ZM37.24 57.46L37.4599 58.13L37.7899 59.14L37.4599 58.9L37.0599 58.61L36.6899 58.34L36.5199 58.22L36.6899 58.04L37.0599 57.64L37.24 57.45V57.46ZM37.0599 53.28C37.1399 53.31 37.1299 53.39 37.1299 53.55C37.1299 53.6 37.0999 53.63 37.0599 53.65C37.0599 53.65 37.0399 53.65 37.0299 53.65C36.8999 53.65 36.7899 53.65 36.6799 53.65H36.3199C36.1799 53.66 36.0799 53.66 36.0099 53.65C35.9599 53.65 35.92 53.65 35.9 53.63C35.83 53.6 35.8399 53.52 35.8399 53.36C35.8399 53.32 35.87 53.28 35.9 53.27C35.91 53.27 35.9199 53.27 35.9299 53.27H36.3099L36.6699 53.26C36.8699 53.26 36.9799 53.26 37.0399 53.28H37.0599ZM36.33 52.21L36.3799 52.68L36.33 52.64L36.0199 52.39L35.9099 52.3L35.5199 51.98L35.4399 51.91L35.5199 51.83L35.9099 51.45L36.0199 51.34L36.2099 51.15L36.33 52.22V52.21ZM36.0199 49.36L36.1599 50.68L36.0199 50.57L35.9099 50.48L35.5199 50.18L35.2699 49.98L35.5199 49.76L35.9099 49.42L36.0199 49.33V49.35V49.36ZM35.9099 48.33L35.9599 48.76L35.9099 48.72L35.5199 48.41L35.2699 48.21L35.0899 48.07L35.2699 47.91L35.5199 47.68L35.8099 47.42L35.9099 48.33ZM35.7599 46.98L35.5199 46.78L35.2699 46.57L35.0599 46.4L34.8799 46.25L35.0599 46.08L35.2699 45.89L35.5199 45.65L35.6099 45.57L35.7599 47V46.98ZM35.5199 44.72L35.5499 45.04L35.5199 45.01L35.2699 44.79L35.0599 44.61L34.8699 44.45L34.7199 44.32L34.8699 44.17L35.0599 43.99L35.2699 43.79L35.4099 43.66L35.5299 44.73L35.5199 44.72ZM35.2699 42.37L35.3599 43.24L35.2699 43.15L35.0599 42.96L34.8699 42.79L34.7099 42.65L34.5399 42.49L34.49 42.44L34.5399 42.39L34.7099 42.22L34.8699 42.07L35.0599 41.89L35.1999 41.75L35.2699 42.35V42.37ZM35.0599 40.45L35.15 41.24L35.0599 41.16L34.8699 40.99L34.7099 40.85L34.5399 40.69L34.4 40.56L34.5399 40.42L34.7099 40.24L34.8699 40.08L34.9999 39.95L35.0499 40.45H35.0599ZM34.8699 38.72L34.9499 39.43L34.8699 39.36L34.7099 39.22L34.5399 39.07L34.2799 38.84L34.1799 38.75L34.2799 38.64L34.5399 38.35L34.7099 38.16L34.7999 38.06L34.8699 38.72ZM34.7099 37.24L34.74 37.49H34.7099L34.5399 37.38L34.2799 37.23L34.15 37.16L34.2799 37.07L34.5399 36.89L34.6699 36.8L34.7199 37.25L34.7099 37.24ZM34.5399 34.74L34.6099 36.16L34.5299 36.08L34.2699 35.81L34.0699 35.6L33.9299 35.46L34.0699 35.3L34.2699 35.06L34.5299 34.75L34.5399 34.74ZM34.5099 34.13L34.2799 33.86L34.08 33.62L33.8499 33.35L34.08 33.07L34.2799 32.82L34.4399 32.63L34.5199 34.14L34.5099 34.13ZM34.4 32.08L34.2699 31.94L34.0699 31.71L33.7899 31.4L34.0699 31.07L34.2699 30.83L34.33 30.76L34.4 32.08ZM34.2699 29.58L34.2999 30.17L34.2699 30.14L34.0699 29.91L33.7599 29.57L34.0699 29.22L34.2499 29.02L34.2799 29.58H34.2699ZM34.2099 28.33L34.0699 28.2L33.7299 27.87V27.85L34.0699 27.44L34.1599 27.33L34.2099 28.33ZM34.08 25.75L34.1299 26.79L34.0699 26.72L33.7299 26.34L33.65 26.25L33.7299 26.15L34.0699 25.75H34.08ZM34.0099 24.34L34.0499 25.16L33.7299 24.81L33.6699 24.74L33.7299 24.67L33.9999 24.34H34.0099ZM33.9799 23.67L33.74 23.41L33.65 23.31L33.6199 23.27L33.65 23.23L33.74 23.13L33.9399 22.91L33.9799 23.66V23.67ZM33.74 22.13L33.65 22.04L33.5699 21.96L33.65 21.86L33.74 21.76L33.8699 21.6L33.9099 22.31L33.74 22.14V22.13ZM33.6299 15.85H33.9V16.4H33.6299V15.85ZM33.4099 17.81H33.6799V17.93H33.6599H33.4199V17.81H33.4099ZM33.4099 18.15H33.6999V18.36H33.6599H33.4199V18.15H33.4099ZM33.4099 18.58H33.7199V18.79H33.6599H33.4199V18.58H33.4099ZM33.4099 19.01H33.74V19.04L33.7499 19.22H33.4099V19.01ZM33.4099 19.44H33.7599V19.65H33.74H33.4099V19.44ZM33.4099 19.87H33.7799V20.02H33.74H33.4099V19.87ZM33.1199 15.86H33.3899V16.41H33.1199V15.86ZM32.9299 17.82H33.1899V17.94H32.9299V17.82ZM32.9299 18.16H33.1899V18.37H32.9299V18.16ZM32.9299 18.59H33.1899V18.8H32.9299V18.59ZM32.9299 19.02H33.1899V19.23H32.9299V19.02ZM32.9299 19.45H33.1899V19.66H32.9299V19.45ZM32.9299 19.88H33.1899V20.03H32.9299V19.88ZM32.9299 20.37L32.9699 20.41L33.0599 20.51L33.2199 20.68L33.24 20.7L33.2199 20.72L33.0599 20.9L32.9699 21L32.9299 21.04V20.36V20.37ZM32.9299 21.62L32.9699 21.66L33.0599 21.76L33.2199 21.92L33.2799 21.98L33.2199 22.05L33.0599 22.24L32.9699 22.35L32.9299 22.39V21.61V21.62ZM32.9299 22.86L32.9699 22.9L33.0599 23L33.2199 23.17L33.3199 23.28L33.2199 23.39L33.0599 23.56L32.9699 23.66L32.9299 23.7V22.84V22.86ZM32.9299 24.26L32.9699 24.3L33.0599 24.4L33.2199 24.58L33.3899 24.77L33.2199 24.97L33.0599 25.16L32.9699 25.27L32.9299 25.32V24.26ZM32.9299 25.79L32.9699 25.83L33.0599 25.93L33.2199 26.11L33.3699 26.28L33.2199 26.46L33.0599 26.65L32.9699 26.76L32.9299 26.8V25.79ZM32.9299 27.41L32.9699 27.45L33.0599 27.54L33.2199 27.69L33.4399 27.9L33.2199 28.16L33.0599 28.35L32.9699 28.46L32.9299 28.51V27.41ZM32.9299 28.98L32.9699 29.02L33.0599 29.12L33.2199 29.3L33.4799 29.59L33.2199 29.89L33.0599 30.07L32.9699 30.18L32.9299 30.22V28.98ZM32.9299 30.77L32.9699 30.81L33.0599 30.91L33.2199 31.09L33.5199 31.42L33.2199 31.77L33.0599 31.96L32.9699 32.07L32.9299 32.11V30.76V30.77ZM32.9299 32.64L32.9699 32.68L33.0599 32.79L33.2199 32.98L33.5499 33.36L33.5699 33.38L33.5499 33.4L33.2199 33.8L33.0599 34L32.9699 34.11L32.9299 34.16V32.64ZM32.9299 34.75L32.9699 34.79L33.0599 34.89L33.2199 35.05L33.5499 35.39L33.65 35.49L33.5499 35.61L33.2199 36L33.0599 36.19L32.9699 36.3L32.9299 36.34V34.76V34.75ZM32.9699 36.86L33.0599 36.91L33.2199 37L33.5499 37.18H33.5699L33.5499 37.2L33.2199 37.43L33.0599 37.54L32.9699 37.6L32.9399 37.62L32.8899 37.03L32.8699 36.8H32.8899L32.9599 36.85L32.9699 36.86ZM32.6199 15.87H32.8899V16.42H32.6199V15.87ZM32.5099 17.83H32.6199V17.95H32.3199V17.83H32.5099ZM32.1199 15.87H32.3899V16.42H32.1199V15.87ZM32.0999 17.83V17.95H31.8699V17.83H32.0999ZM31.6199 15.87H31.8899V16.42H31.6199V15.87ZM31.6199 22.89L31.7399 23.02L31.8799 23.18L31.9799 23.29L31.8799 23.4L31.7399 23.56L31.5699 23.74L31.6099 22.89H31.6199ZM31.5399 24.5V24.3L31.7399 24.53L31.8799 24.7L31.9199 24.75L31.8799 24.79L31.7399 24.95L31.5399 25.18L31.4999 25.22L31.5399 24.49V24.5ZM31.4799 25.71L31.5399 25.78L31.7399 26.02L31.8799 26.19L31.9399 26.26L31.8799 26.33L31.7399 26.49L31.5399 26.72L31.4199 26.86L31.4799 25.71ZM31.3999 27.29L31.5399 27.46L31.7399 27.71L31.8699 27.87L31.7399 28L31.5399 28.2L31.3399 28.39L31.3999 27.29ZM31.2999 29.14V28.99L31.5399 29.25L31.7399 29.48L31.8299 29.58L31.7399 29.68L31.5399 29.91L31.2999 30.18L31.2399 30.24L31.2999 29.14ZM31.2199 30.71L31.2999 30.81L31.5399 31.09L31.7399 31.33L31.7999 31.4L31.7399 31.46L31.5399 31.69L31.2999 31.96L31.1499 32.13L31.2199 30.7V30.71ZM31.1199 32.57L31.2999 32.79L31.5399 33.08L31.7399 33.33V33.35V33.36L31.5399 33.6L31.2999 33.88L31.0399 34.18L31.1199 32.57ZM31.0099 34.69L31.2999 35.03L31.5399 35.31L31.6699 35.46L31.5399 35.59L31.2999 35.84L30.9299 36.22L31.0099 34.7V34.69ZM30.8699 36.8L30.9199 36.83L31.2999 37.09L31.3699 37.14L31.2999 37.18L30.9199 37.39L30.7999 37.46L30.8699 36.79V36.8ZM30.6399 38.93L30.7299 38.09L30.9199 38.29L31.2999 38.71L31.3399 38.76L31.2999 38.8L30.9199 39.13L30.6399 39.37L30.5899 39.42L30.6399 38.93ZM30.4499 40.72L30.5299 39.97L30.6399 40.09L30.9199 40.37L31.1199 40.57L30.9199 40.75L30.6399 41L30.4499 41.18L30.3999 41.23L30.4499 40.73V40.72ZM30.2199 42.86L30.3399 41.79L30.4599 41.9L30.6499 42.09L30.9299 42.35L31.0399 42.45L30.9299 42.55L30.6499 42.8L30.4599 42.98L30.2299 43.19L30.1899 43.23L30.2299 42.86H30.2199ZM30.1299 43.67L30.2199 43.75L30.4499 43.97L30.6399 44.16L30.7899 44.31L30.6399 44.44L30.4499 44.61L30.2199 44.81L29.9899 45.01L30.1399 43.66L30.1299 43.67ZM29.8799 45.94L29.9199 45.57L30.2099 45.85L30.4399 46.07L30.6299 46.25L30.4399 46.41L30.2099 46.6L29.8799 46.88L29.7699 46.97L29.8799 45.94ZM29.6099 48.42L29.7199 47.44L29.8799 47.59L30.2099 47.89L30.4199 48.08L30.2099 48.25L29.8799 48.51L29.6099 48.72L29.5699 48.75L29.6099 48.42ZM29.4999 49.45V49.36L29.6099 49.45L29.8799 49.68L30.2099 49.97L30.2399 50L30.2099 50.03L29.8799 50.29L29.6099 50.5L29.4999 50.59L29.3699 50.69L29.4999 49.46V49.45ZM29.1799 52.43L29.3199 51.16L29.4999 51.34L29.6099 51.45L29.8799 51.72L30.0699 51.91L29.8799 52.07L29.6099 52.29L29.4999 52.38L29.1799 52.65L29.1499 52.67L29.1799 52.44V52.43ZM28.4899 53.28H28.7599H28.8599H29.1799C29.3299 53.27 29.4299 53.27 29.4999 53.28C29.5499 53.28 29.5899 53.28 29.6099 53.3C29.6899 53.33 29.6699 53.41 29.6699 53.57C29.6699 53.61 29.6399 53.65 29.6099 53.66C29.6099 53.66 29.5899 53.66 29.5799 53.66H29.4999C29.3799 53.66 29.2699 53.66 29.1799 53.66H28.8599H28.7599C28.3599 53.66 28.3999 53.64 28.3999 53.37C28.3999 53.31 28.4399 53.27 28.4999 53.27L28.4899 53.28ZM28.0799 57.84L28.1999 57.47L28.7499 58.06L28.8499 58.17L28.9099 58.24L28.8499 58.28L28.7499 58.35L28.0699 58.84L27.6399 59.15L28.0699 57.84H28.0799ZM26.8399 61.64L27.2799 60.29L27.3899 59.94L27.4099 59.87L28.0799 60.58L28.2599 60.77L28.0799 60.9L27.3899 61.38L27.2799 61.46L26.8399 61.77L26.7799 61.81L26.8399 61.63V61.64ZM25.9799 64.27L26.2899 63.33L26.5699 62.48L26.6599 62.57L26.8399 62.75L27.2799 63.18L27.3899 63.29L27.6199 63.51L27.3899 63.65L27.2799 63.72L26.8399 64L26.6599 64.12L26.2899 64.35L25.9799 64.54L25.8699 64.61L25.9799 64.28V64.27ZM25.6699 65.22L25.9799 65.47L26.2899 65.72L26.5199 65.9H25.4499L25.6699 65.22ZM25.0299 67.19L25.3099 66.35H26.7399L26.6699 66.39L26.2999 66.59L25.9899 66.76L25.0299 67.27L24.9999 67.29L25.0299 67.2V67.19ZM25.0299 68.03H25.3799V69.25H24.6899V68.03H25.0399H25.0299ZM25.4099 69.76V71.27H24.6599V69.76H25.4099ZM23.5799 66.35H24.8399L24.4299 67.6H23.8099L23.5899 66.35H23.5799ZM24.4599 68.04V69.26H24.0199V68.04H24.4599ZM23.5799 70.4L23.8699 69.91L23.9499 69.77H24.4399V71.28H23.5799V70.41V70.4ZM23.2099 71.02L23.3599 70.77V71.27H23.0699L23.2199 71.02H23.2099ZM22.7899 71.74L22.8799 71.58C22.8799 71.58 22.9099 71.58 22.9299 71.58H26.4199L26.2799 71.83L26.1699 72.02H25.9699L25.0099 71.99L24.1899 71.97H23.8499L23.1899 71.94H22.7699L22.6499 71.93L22.7699 71.73L22.7899 71.74ZM25.3799 73.51L25.0299 74.16L24.5299 75.08L24.2099 74.65L23.8699 74.19L23.5799 73.8L23.8699 73.64L24.2099 73.46L25.0299 73.02L25.9199 72.54L25.3799 73.52V73.51ZM23.8699 75.1H21.1699H21.1799L22.1599 74.56L22.7899 74.22L23.2099 73.99L23.2999 73.94L23.8699 74.71L24.1599 75.1H23.8699ZM23.9299 75.41L23.8699 75.44L23.2099 75.81L22.7899 76.05L22.1599 76.4L21.6899 76.66L21.1799 75.81L20.9399 75.42H23.9199L23.9299 75.41ZM22.4899 72.24H22.7899L23.2099 72.26L23.8699 72.28H24.2099L25.0299 72.31L25.6299 72.33L25.0299 72.65L24.2099 73.09L23.8699 73.27L23.3899 73.53L23.2099 73.29L22.7899 72.72L22.4699 72.28L22.4899 72.24ZM21.1799 74.46L22.1599 72.8L22.2999 72.57L22.7999 73.24L23.1199 73.68L22.7999 73.86L22.1699 74.2L21.1899 74.73L20.9499 74.86L21.1899 74.45L21.1799 74.46ZM19.3099 77.62L20.5899 75.44L21.1699 76.41L21.4099 76.81L21.1699 76.94L19.2999 77.98L18.9799 78.16L19.2999 77.62H19.3099ZM19.3099 78.75L21.1799 78.82L22.1599 78.86H22.2299L22.1599 78.9L21.1799 79.43L20.1299 80L19.3199 79.14L18.9299 78.73H19.3199L19.3099 78.75ZM18.5899 78.84L19.3099 79.6L19.8399 80.16L19.3099 80.45L16.8499 81.8L18.5899 78.85V78.84ZM21.1799 82.1H16.9499L19.3099 80.81L20.0599 80.4L21.1699 81.58L21.6699 82.1H21.1699H21.1799ZM22.1599 79.99C21.9999 80.55 21.8799 81.14 21.7999 81.76L21.1899 81.11L20.3599 80.23L21.1899 79.78L22.1699 79.25L22.4699 79.09C22.3599 79.38 22.2599 79.68 22.1699 79.99H22.1599ZM22.1599 78.54L21.1799 78.5L19.3099 78.43H19.1599L19.3099 78.34L21.1799 77.3L21.5799 77.08L22.1599 78.05L22.4599 78.56H22.1599V78.54ZM24.2099 75.65L23.8699 76.27L23.2099 77.48L22.9599 77.94C22.8999 78.06 22.8399 78.19 22.7799 78.31L22.7299 78.41L22.1499 77.43L21.8499 76.92L22.1499 76.75L22.7799 76.4L23.1999 76.16L23.8599 75.79L24.1999 75.6L24.2299 75.58L24.1999 75.64L24.2099 75.65ZM32.6399 72.16H32.5199H32.4799H32.3499C32.2299 72.16 32.1099 72.18 31.9899 72.18H31.8799L31.7399 72.2L31.5399 72.22C31.4599 72.22 31.3799 72.24 31.2999 72.25C31.1699 72.27 31.0499 72.29 30.9199 72.31C30.8299 72.33 30.7399 72.34 30.6399 72.36L30.4499 72.4C30.3699 72.42 30.2999 72.43 30.2199 72.45C30.1099 72.48 29.9999 72.5 29.8899 72.53C29.7999 72.55 29.7099 72.58 29.6199 72.6L29.5099 72.63C29.3999 72.66 29.2899 72.7 29.1899 72.73C29.0799 72.77 28.9699 72.8 28.8699 72.84L28.7699 72.88C28.5399 72.97 28.3199 73.06 28.0899 73.16C27.8599 73.27 27.6299 73.38 27.3999 73.5L27.2899 73.56C27.1399 73.64 26.9899 73.73 26.8499 73.82C26.7899 73.86 26.7299 73.9 26.6699 73.93C26.5499 74.01 26.4199 74.09 26.2999 74.18C26.1999 74.25 26.0899 74.33 25.9899 74.4C25.6599 74.65 25.3399 74.92 25.0299 75.21C24.8599 75.37 24.6899 75.54 24.5299 75.72L25.0299 74.8L25.6299 73.7C25.7499 73.62 25.8699 73.55 25.9899 73.48C26.0899 73.42 26.1999 73.36 26.2999 73.3C26.4199 73.23 26.5399 73.16 26.6699 73.1L26.8499 73C26.9999 72.93 27.1399 72.86 27.2899 72.79L27.3999 72.74C27.6299 72.64 27.8599 72.54 28.0899 72.46C28.3099 72.37 28.5399 72.3 28.7699 72.22L28.8699 72.19C28.9799 72.16 29.0899 72.12 29.1899 72.09C29.2999 72.06 29.3999 72.03 29.5099 72L29.6199 71.97C29.7099 71.95 29.7999 71.93 29.8899 71.91C29.9999 71.89 30.1099 71.86 30.2199 71.84C30.2999 71.82 30.3699 71.81 30.4499 71.8L30.6399 71.77C30.7299 71.75 30.8199 71.74 30.9199 71.73C31.0499 71.71 31.1699 71.7 31.2999 71.68L31.5399 71.65L31.7399 71.63H31.8799L31.9899 71.61C32.1099 71.61 32.2299 71.6 32.3499 71.59H32.4799H32.5199H32.6399V72.16ZM32.6399 71.26H31.8699V69.75H32.6399V71.26ZM32.5199 67.59H31.8399V66.34H33.6799V67.59H32.5199ZM32.8399 68.03H33.5999V69.25H32.8399V68.03ZM33.58 69.76V71.27H32.8599V69.76H33.58ZM40.3599 75.16C40.0799 74.89 39.79 74.63 39.49 74.4C39.39 74.32 39.2899 74.24 39.1799 74.17C39.0799 74.1 38.9799 74.03 38.8799 73.96C38.7199 73.86 38.56 73.76 38.4 73.66C38.33 73.62 38.2599 73.58 38.1899 73.54C38.1099 73.49 38.0199 73.45 37.9399 73.4C37.7899 73.32 37.6299 73.24 37.4799 73.17C37.3499 73.11 37.22 73.05 37.08 73C36.96 72.95 36.8299 72.9 36.7099 72.85C36.5899 72.81 36.4699 72.76 36.3499 72.72C36.2499 72.69 36.1499 72.65 36.0399 72.62L35.9299 72.59C35.7999 72.55 35.6699 72.52 35.5399 72.49C35.4599 72.47 35.3699 72.45 35.2899 72.43L35.08 72.39C35.02 72.38 34.9599 72.37 34.8899 72.35L34.7299 72.32L34.5599 72.29C34.4699 72.28 34.3799 72.26 34.2999 72.25L34.0999 72.23C33.9899 72.22 33.8699 72.21 33.7599 72.2H33.6699L33.5599 72.19C33.4499 72.19 33.3399 72.18 33.2299 72.17H33.0699H32.9799H32.9099H32.8599V71.6H32.9099H32.9799H33.0699H33.2299C33.3399 71.6 33.4499 71.6 33.5599 71.61H33.6699L33.7599 71.62C33.8699 71.62 33.9899 71.64 34.0999 71.65L34.2999 71.67C34.3899 71.67 34.4799 71.69 34.5599 71.7L34.7299 71.72L34.8899 71.74L35.08 71.77L35.2899 71.81C35.3699 71.83 35.4599 71.84 35.5399 71.86C35.6699 71.89 35.7999 71.92 35.9299 71.95L36.0399 71.98C36.1399 72.01 36.2399 72.03 36.3499 72.06C36.4699 72.09 36.5899 72.13 36.7099 72.17C36.8299 72.21 36.96 72.25 37.08 72.29C37.21 72.34 37.3499 72.38 37.4799 72.44C37.6399 72.5 37.7899 72.56 37.9399 72.63C38.0199 72.67 38.1099 72.7 38.1899 72.74L38.4 72.84C38.56 72.92 38.7199 73 38.8799 73.08C38.9799 73.13 39.0799 73.19 39.1799 73.25C39.2799 73.31 39.39 73.37 39.49 73.43C39.57 73.48 39.6399 73.53 39.7199 73.58L40.3599 74.77L40.8399 75.65C40.6899 75.48 40.5299 75.31 40.3599 75.15V75.16ZM40.3599 74.12L39.49 72.51L39.4699 72.48H39.49L40.3599 72.96L41.2899 73.46L41.5899 73.62L41.8799 73.78L41.5899 74.17L41.2899 74.58L40.9 75.11L40.3599 74.12ZM42.4199 77.96H42.4399L42.4099 77.89L41.5899 76.38L41.2899 75.83L41.1399 75.56L41.2899 75.64L41.5899 75.81L42.4099 76.27L43.3099 76.77L43.6099 76.94L43.3099 77.45L42.6799 78.5C42.5999 78.32 42.5099 78.14 42.4199 77.97V77.96ZM43.3099 80.2C43.1899 79.8 43.0599 79.42 42.9099 79.05L43.3099 79.27L44.0099 79.66L44.2799 79.81L45.1099 80.26L44.2799 81.14L44.0099 81.43L43.6699 81.79C43.5699 81.24 43.4499 80.72 43.2999 80.22L43.3099 80.2ZM46.15 82.11H43.7899L44.0199 81.87L44.2899 81.58L45.4 80.4L46.15 80.81L48.5099 82.1H46.15V82.11ZM46.15 80.46L45.6199 80.17L46.15 79.61L46.9299 78.79L48.6799 81.83L46.1599 80.45L46.15 80.46Z" fill="#F5EFDF"/>
<path d="M39.41 20.0801L41.33 19.8601V13.4101C41.23 13.4401 41.09 13.4801 40.91 13.5201C40.72 13.5601 40.53 13.5901 40.32 13.6201C40.11 13.6501 39.91 13.6801 39.72 13.7101C39.53 13.7401 39.37 13.7501 39.26 13.7501L39.05 12.4801C39.36 12.4201 39.69 12.3301 40.02 12.2101C40.35 12.0901 40.67 11.9601 40.98 11.8101C41.29 11.6601 41.58 11.5101 41.85 11.3401C42.12 11.1701 42.35 11.0101 42.55 10.8401L44.04 11.0101V19.8601L45.72 20.0801V21.1401H39.41V20.0801Z" fill="#F5EFDF"/>
<path d="M46.91 15.96C46.91 15.05 47.05 14.27 47.31 13.6C47.57 12.93 47.92 12.38 48.36 11.95C48.8 11.52 49.3 11.19 49.87 10.98C50.44 10.77 51.04 10.66 51.67 10.66C52.37 10.66 52.99 10.77 53.52 11C54.05 11.22 54.5 11.55 54.85 11.98C55.21 12.41 55.47 12.94 55.65 13.57C55.83 14.2 55.92 14.92 55.92 15.74C55.92 16.64 55.79 17.43 55.54 18.1C55.28 18.78 54.94 19.34 54.51 19.79C54.08 20.24 53.58 20.58 53.01 20.8C52.44 21.02 51.84 21.14 51.2 21.14C50.5 21.14 49.89 21.02 49.35 20.79C48.81 20.55 48.37 20.21 48 19.76C47.64 19.31 47.37 18.77 47.18 18.13C47 17.49 46.9 16.77 46.9 15.96H46.91ZM51.45 20.06C52.06 20.06 52.5 19.72 52.76 19.04C53.02 18.36 53.16 17.33 53.16 15.94C53.16 15.2 53.13 14.56 53.07 14.03C53.01 13.5 52.91 13.06 52.77 12.72C52.63 12.38 52.45 12.13 52.24 11.97C52.02 11.81 51.75 11.73 51.43 11.73C50.81 11.73 50.36 12.06 50.08 12.72C49.8 13.38 49.66 14.39 49.66 15.75C49.66 17.21 49.8 18.29 50.08 19C50.36 19.71 50.82 20.06 51.45 20.06Z" fill="#F5EFDF"/>
<path d="M20.43 90.55L21.05 90.49V87.46H20.25L20.07 88.47H19.72L19.8 87.16H22.83L22.91 88.47H22.57L22.39 87.46H21.62V90.49L22.3 90.55V90.81H20.42V90.55H20.43Z" fill="#F5EFDF"/>
<path d="M23.23 89.4501C23.23 89.2301 23.27 89.0401 23.34 88.8701C23.41 88.7001 23.51 88.5601 23.63 88.4401C23.75 88.3201 23.89 88.2401 24.05 88.1801C24.21 88.1201 24.36 88.0901 24.53 88.0901C24.75 88.0901 24.93 88.1301 25.09 88.2001C25.25 88.2701 25.38 88.3701 25.48 88.4901C25.58 88.6101 25.66 88.7601 25.7 88.9201C25.75 89.0901 25.77 89.2701 25.77 89.4601C25.77 89.6801 25.73 89.8801 25.66 90.0501C25.59 90.2201 25.49 90.3601 25.37 90.4801C25.25 90.6001 25.11 90.6801 24.95 90.7401C24.79 90.8001 24.63 90.8301 24.47 90.8301C24.25 90.8301 24.07 90.8001 23.91 90.7301C23.75 90.6601 23.63 90.5601 23.53 90.4401C23.43 90.3201 23.35 90.1701 23.31 90.0101C23.26 89.8401 23.24 89.6601 23.24 89.4701L23.23 89.4501ZM24.5 90.5201C24.94 90.5201 25.16 90.1801 25.16 89.5001C25.16 89.3401 25.15 89.1901 25.12 89.0601C25.1 88.9301 25.06 88.8101 25 88.7101C24.95 88.6101 24.88 88.5301 24.8 88.4801C24.72 88.4201 24.61 88.4001 24.49 88.4001C24.27 88.4001 24.11 88.4901 23.99 88.6601C23.88 88.8301 23.82 89.0901 23.82 89.4301C23.82 89.5901 23.83 89.7401 23.86 89.8701C23.88 90.0101 23.92 90.1201 23.98 90.2201C24.03 90.3201 24.1 90.4001 24.19 90.4501C24.27 90.5101 24.38 90.5301 24.5 90.5301V90.5201Z" fill="#F5EFDF"/>
<path d="M26.42 88.3601L26.15 88.2701V88.0401L26.86 87.9701L26.96 88.0301V89.7201C26.96 89.8501 26.96 89.9601 26.98 90.0501C26.99 90.1401 27.02 90.2201 27.05 90.2701C27.09 90.3301 27.13 90.3701 27.2 90.3901C27.26 90.4201 27.34 90.4301 27.44 90.4301C27.51 90.4301 27.58 90.4301 27.64 90.4101C27.7 90.3901 27.76 90.3701 27.81 90.3501C27.86 90.3301 27.91 90.3001 27.95 90.2701C27.99 90.2401 28.03 90.2201 28.06 90.1901V88.3501L27.72 88.2601V88.0301L28.48 87.9601L28.61 88.0201V90.4701H28.9V90.7101C28.84 90.7301 28.78 90.7501 28.7 90.7701C28.62 90.7901 28.53 90.8001 28.43 90.8001C28.33 90.8001 28.26 90.7801 28.21 90.7401C28.16 90.7001 28.13 90.6401 28.13 90.5401V90.4201C28.13 90.4201 28.03 90.5101 27.97 90.5501C27.91 90.5901 27.84 90.6401 27.76 90.6701C27.68 90.7101 27.6 90.7401 27.52 90.7601C27.44 90.7801 27.35 90.8001 27.26 90.8001C27.11 90.8001 26.98 90.7801 26.88 90.7401C26.77 90.7001 26.68 90.6401 26.62 90.5501C26.55 90.4701 26.5 90.3601 26.47 90.2201C26.44 90.0901 26.42 89.9201 26.42 89.7301V88.3401V88.3601Z" fill="#F5EFDF"/>
<path d="M29.31 90.5501L29.69 90.5101V88.5701L29.35 88.4701V88.1801L30.04 88.0801H30.05L30.16 88.1701V88.6501C30.16 88.6301 30.18 88.6101 30.21 88.5701C30.23 88.5301 30.27 88.5001 30.31 88.4501C30.35 88.4101 30.4 88.3601 30.45 88.3201C30.5 88.2701 30.56 88.2301 30.63 88.1901C30.69 88.1501 30.76 88.1201 30.84 88.1001C30.92 88.0801 31 88.0601 31.08 88.0601C31.12 88.0601 31.15 88.0601 31.17 88.0601C31.19 88.0601 31.22 88.0701 31.23 88.0801V88.6901C31.23 88.6901 31.16 88.6501 31.11 88.6401C31.06 88.6201 31 88.6201 30.94 88.6201C30.85 88.6201 30.77 88.6201 30.7 88.6401C30.63 88.6501 30.56 88.6701 30.5 88.6901C30.44 88.7101 30.39 88.7301 30.35 88.7601C30.31 88.7901 30.27 88.8101 30.23 88.8401V90.5201H30.86V90.8001H29.31V90.5401V90.5501Z" fill="#F5EFDF"/>
<path d="M33.05 90.55L33.45 90.49V87.5L33.05 87.43V87.16H35.55L35.62 87.92H35.31L35.16 87.45H34.01V88.78H34.79L34.86 88.38H35.17V89.51H34.86L34.79 89.08H34.01V90.48H35.33L35.6 89.85L35.91 89.94L35.77 90.8H33.05V90.54V90.55Z" fill="#F5EFDF"/>
<path d="M36.2099 90.5501L36.5999 90.5101V88.5001L36.25 88.4001V88.1201L37.0099 88.0201H37.02L37.1399 88.1101V90.5001L37.52 90.5401V90.8001H36.2V90.5401L36.2099 90.5501ZM36.6699 87.5101C36.6699 87.5101 36.6 87.4701 36.57 87.4401C36.54 87.4101 36.5199 87.3801 36.5099 87.3401C36.4899 87.3001 36.49 87.2601 36.49 87.2101C36.49 87.1601 36.4899 87.1101 36.5099 87.0601C36.5299 87.0101 36.55 86.9701 36.58 86.9401C36.61 86.9001 36.6499 86.8801 36.6899 86.8501C36.7299 86.8301 36.7899 86.8201 36.8499 86.8201C36.8999 86.8201 36.95 86.8201 36.99 86.8501C37.03 86.8701 37.07 86.8901 37.09 86.9201C37.12 86.9501 37.14 86.9901 37.15 87.0301C37.16 87.0701 37.1699 87.1101 37.1699 87.1501C37.1699 87.2001 37.17 87.2501 37.15 87.3001C37.13 87.3501 37.11 87.3901 37.08 87.4201C37.05 87.4501 37.0099 87.4801 36.9599 87.5001C36.9099 87.5201 36.8599 87.5301 36.7999 87.5301C36.7999 87.5301 36.7099 87.5301 36.6699 87.5001V87.5101Z" fill="#F5EFDF"/>
<path d="M37.88 90.5501L38.28 90.5101V88.4401H37.82V88.2001L38.28 88.0901V87.8801C38.28 87.7301 38.31 87.5901 38.38 87.4701C38.45 87.3401 38.53 87.2301 38.64 87.1401C38.75 87.0501 38.87 86.9701 39.01 86.9201C39.15 86.8701 39.29 86.8401 39.43 86.8401C39.51 86.8401 39.57 86.8401 39.61 86.8501C39.65 86.8501 39.69 86.8701 39.71 86.8801V87.4101C39.71 87.4101 39.68 87.3901 39.65 87.3701C39.62 87.3601 39.59 87.3401 39.55 87.3301C39.51 87.3201 39.46 87.3101 39.41 87.3001C39.36 87.3001 39.3 87.2901 39.25 87.2901C39.17 87.2901 39.11 87.2901 39.05 87.3101C39 87.3201 38.95 87.3501 38.92 87.3801C38.89 87.4101 38.86 87.4601 38.85 87.5101C38.84 87.5701 38.83 87.6401 38.83 87.7201V88.1001H39.49V88.4401H38.83V90.5201L39.35 90.5601V90.8201H37.88V90.5601V90.5501Z" fill="#F5EFDF"/>
<path d="M39.86 90.5501L40.26 90.5101V88.4401H39.8V88.2001L40.26 88.0901V87.8801C40.26 87.7301 40.29 87.5901 40.36 87.4701C40.43 87.3401 40.51 87.2301 40.62 87.1401C40.73 87.0501 40.85 86.9701 40.99 86.9201C41.13 86.8701 41.27 86.8401 41.41 86.8401C41.49 86.8401 41.55 86.8401 41.59 86.8501C41.63 86.8501 41.67 86.8701 41.69 86.8801V87.4101C41.69 87.4101 41.66 87.3901 41.63 87.3701C41.6 87.3601 41.57 87.3401 41.53 87.3301C41.49 87.3201 41.44 87.3101 41.39 87.3001C41.34 87.3001 41.28 87.2901 41.23 87.2901C41.15 87.2901 41.09 87.2901 41.03 87.3101C40.98 87.3201 40.93 87.3501 40.9 87.3801C40.87 87.4101 40.84 87.4601 40.83 87.5101C40.82 87.5701 40.81 87.6401 40.81 87.7201V88.1001H41.47V88.4401H40.81V90.5201L41.33 90.5601V90.8201H39.86V90.5601V90.5501Z" fill="#F5EFDF"/>
<path d="M41.83 89.4501C41.83 89.2501 41.86 89.0601 41.93 88.8901C41.99 88.7201 42.08 88.5801 42.2 88.4601C42.31 88.3401 42.45 88.2501 42.61 88.1801C42.77 88.1101 42.94 88.0801 43.13 88.0801C43.44 88.0801 43.67 88.1601 43.84 88.3101C44.01 88.4601 44.1 88.6801 44.11 88.9801C44.11 89.0701 44.11 89.1501 44.11 89.2301C44.11 89.3001 44.1 89.3601 44.08 89.4101H42.42C42.42 89.5901 42.45 89.7501 42.5 89.8801C42.55 90.0101 42.6 90.1201 42.68 90.2001C42.75 90.2801 42.84 90.3501 42.93 90.3901C43.03 90.4301 43.13 90.4501 43.24 90.4501C43.31 90.4501 43.38 90.4501 43.45 90.4301C43.52 90.4201 43.59 90.4001 43.65 90.3801C43.71 90.3601 43.77 90.3401 43.83 90.3101C43.89 90.2801 43.93 90.2601 43.97 90.2301L44.07 90.4601C44.07 90.4601 43.97 90.5501 43.9 90.5901C43.83 90.6301 43.75 90.6701 43.66 90.7101C43.57 90.7401 43.48 90.7701 43.38 90.7901C43.28 90.8101 43.18 90.8201 43.08 90.8201C42.87 90.8201 42.69 90.7901 42.54 90.7201C42.39 90.6501 42.26 90.5601 42.16 90.4401C42.06 90.3201 41.98 90.1801 41.93 90.0101C41.88 89.8401 41.85 89.6601 41.85 89.4601L41.83 89.4501ZM43.52 89.1301C43.52 89.1301 43.52 89.0701 43.52 89.0401C43.52 89.0101 43.52 88.9801 43.52 88.9501C43.52 88.8701 43.52 88.8001 43.49 88.7301C43.47 88.6601 43.44 88.6001 43.4 88.5501C43.36 88.5001 43.31 88.4601 43.24 88.4301C43.17 88.4001 43.09 88.3901 43 88.3901C42.92 88.3901 42.84 88.4001 42.77 88.4301C42.7 88.4501 42.64 88.5001 42.58 88.5501C42.53 88.6101 42.48 88.6901 42.45 88.7801C42.42 88.8801 42.4 89.0001 42.39 89.1401H43.5L43.52 89.1301Z" fill="#F5EFDF"/>
<path d="M44.47 90.55L44.86 90.51V87.17L44.47 87.12V86.89L45.29 86.79L45.41 86.87V90.51L45.82 90.55V90.81H44.48V90.55H44.47Z" fill="#F5EFDF"/>
<path fill-rule="evenodd" clip-rule="evenodd" d="M18.33 88.17L9.81 88.72V88.88L18.33 89.42V88.17Z" fill="#F5EFDF"/>
<path fill-rule="evenodd" clip-rule="evenodd" d="M47.14 88.17L55.66 88.72V88.88L47.14 89.42V88.17Z" fill="#F5EFDF"/>
</g>
<defs>
<clipPath id="clip0_18_16">
<rect width="65.47" height="99.57" fill="white"/>
</clipPath>
</defs>
</svg>